<svg xmlns="http://www.w3.org/2000/svg" width="326.46999999999997" height="35" viewBox="0 0 326.46999999999997 35"><rect class="svg__rect" x="0" y="0" width="97.68" height="35" fill="#31C4F3"/><rect class="svg__rect" x="95.68" y="0" width="230.78999999999996" height="35" fill="#C13B3A"/><path class="svg__text" d="M17.33 22L14.22 22L14.22 13.47L17.14 13.47Q18.59 13.47 19.34 14.05Q20.10 14.63 20.10 15.78L20.10 15.78Q20.10 16.36 19.78 16.83Q19.47 17.30 18.86 17.56L18.86 17.56Q19.55 17.75 19.93 18.26Q20.31 18.78 20.31 19.51L20.31 19.51Q20.31 20.71 19.53 21.36Q18.76 22 17.33 22L17.33 22ZM15.70 18.15L15.70 20.82L17.35 20.82Q18.04 20.82 18.44 20.47Q18.83 20.13 18.83 19.51L18.83 19.51Q18.83 18.18 17.47 18.15L17.47 18.15L15.70 18.15ZM15.70 14.66L15.70 17.06L17.15 17.06Q17.84 17.06 18.23 16.75Q18.62 16.43 18.62 15.86L18.62 15.86Q18.62 15.23 18.26 14.95Q17.90 14.66 17.14 14.66L17.14 14.66L15.70 14.66ZM24.64 19.16L24.64 19.16L24.64 13.47L26.12 13.47L26.12 19.18Q26.12 20.03 26.55 20.48Q26.98 20.93 27.83 20.93L27.83 20.93Q29.54 20.93 29.54 19.13L29.54 19.13L29.54 13.47L31.02 13.47L31.02 19.17Q31.02 20.53 30.15 21.32Q29.28 22.12 27.83 22.12L27.83 22.12Q26.36 22.12 25.50 21.33Q24.64 20.55 24.64 19.16ZM37.15 22L35.67 22L35.67 13.47L37.15 13.47L37.15 22ZM47.32 22L41.96 22L41.96 13.47L43.44 13.47L43.44 20.82L47.32 20.82L47.32 22ZM53.12 14.66L50.49 14.66L50.49 13.47L57.25 13.47L57.25 14.66L54.59 14.66L54.59 22L53.12 22L53.12 14.66ZM67.77 22L66.22 22L69.45 13.47L70.78 13.47L74.01 22L72.46 22L71.76 20.01L68.46 20.01L67.77 22ZM70.11 15.28L68.87 18.82L71.35 18.82L70.11 15.28ZM77.53 19.42L77.53 19.42L79.01 19.42Q79.01 20.15 79.49 20.55Q79.97 20.95 80.87 20.95L80.87 20.95Q81.64 20.95 82.03 20.63Q82.42 20.32 82.42 19.80L82.42 19.80Q82.42 19.24 82.02 18.94Q81.63 18.63 80.60 18.32Q79.57 18.01 78.96 17.63L78.96 17.63Q77.79 16.90 77.79 15.72L77.79 15.72Q77.79 14.69 78.63 14.02Q79.47 13.35 80.81 13.35L80.81 13.35Q81.71 13.35 82.40 13.68Q83.10 14.01 83.50 14.61Q83.90 15.22 83.90 15.96L83.90 15.96L82.42 15.96Q82.42 15.29 82.00 14.91Q81.58 14.54 80.80 14.54L80.80 14.54Q80.08 14.54 79.68 14.85Q79.27 15.16 79.27 15.71L79.27 15.71Q79.27 16.18 79.71 16.50Q80.14 16.81 81.14 17.10Q82.13 17.40 82.74 17.78Q83.34 18.16 83.62 18.65Q83.90 19.13 83.90 19.79L83.90 19.79Q83.90 20.86 83.09 21.49Q82.27 22.12 80.87 22.12L80.87 22.12Q79.94 22.12 79.17 21.77Q78.39 21.43 77.96 20.83Q77.53 20.22 77.53 19.42Z" fill="#FFFFFF"/><path class="svg__text" d="M111.29 22L108.86 22L112.57 13.60L114.91 13.60L118.63 22L116.16 22L115.50 20.37L111.95 20.37L111.29 22ZM113.72 15.93L112.64 18.61L114.80 18.61L113.72 15.93ZM122.71 18.26L122.71 18.26L122.71 13.60L125.09 13.60L125.09 18.19Q125.09 20.20 126.68 20.20L126.68 20.20Q128.27 20.20 128.27 18.19L128.27 18.19L128.27 13.60L130.61 13.60L130.61 18.26Q130.61 20.13 129.57 21.15Q128.53 22.17 126.66 22.17L126.66 22.17Q124.79 22.17 123.75 21.15Q122.71 20.13 122.71 18.26ZM137.49 15.48L134.91 15.48L134.91 13.60L142.43 13.60L142.43 15.48L139.86 15.48L139.86 22L137.49 22L137.49 15.48ZM146.37 17.80L146.37 17.80Q146.37 16.55 146.98 15.55Q147.58 14.56 148.64 14.00Q149.71 13.43 151.04 13.43L151.04 13.43Q152.37 13.43 153.43 14.00Q154.49 14.56 155.10 15.55Q155.71 16.55 155.71 17.80L155.71 17.80Q155.71 19.05 155.10 20.04Q154.49 21.04 153.43 21.60Q152.37 22.17 151.04 22.17L151.04 22.17Q149.71 22.17 148.64 21.60Q147.58 21.04 146.98 20.04Q146.37 19.05 146.37 17.80ZM148.77 17.80L148.77 17.80Q148.77 18.51 149.07 19.05Q149.37 19.60 149.89 19.90Q150.40 20.20 151.04 20.20L151.04 20.20Q151.67 20.20 152.19 19.90Q152.71 19.60 153.00 19.05Q153.30 18.51 153.30 17.80L153.30 17.80Q153.30 17.09 153.00 16.54Q152.71 16 152.19 15.70Q151.67 15.40 151.04 15.40L151.04 15.40Q150.40 15.40 149.88 15.70Q149.37 16 149.07 16.54Q148.77 17.09 148.77 17.80ZM162.77 22L160.43 22L160.43 13.60L162.39 13.60L166.10 18.07L166.10 13.60L168.43 13.60L168.43 22L166.48 22L162.77 17.52L162.77 22ZM173.16 17.80L173.16 17.80Q173.16 16.55 173.76 15.55Q174.37 14.56 175.43 14.00Q176.49 13.43 177.82 13.43L177.82 13.43Q179.16 13.43 180.22 14.00Q181.28 14.56 181.89 15.55Q182.49 16.55 182.49 17.80L182.49 17.80Q182.49 19.05 181.89 20.04Q181.28 21.04 180.22 21.60Q179.16 22.17 177.82 22.17L177.82 22.17Q176.49 22.17 175.43 21.60Q174.37 21.04 173.76 20.04Q173.16 19.05 173.16 17.80ZM175.56 17.80L175.56 17.80Q175.56 18.51 175.86 19.05Q176.16 19.60 176.68 19.90Q177.19 20.20 177.82 20.20L177.82 20.20Q178.46 20.20 178.98 19.90Q179.49 19.60 179.79 19.05Q180.09 18.51 180.09 17.80L180.09 17.80Q180.09 17.09 179.79 16.54Q179.49 16 178.98 15.70Q178.46 15.40 177.82 15.40L177.82 15.40Q177.19 15.40 176.67 15.70Q176.16 16 175.86 16.54Q175.56 17.09 175.56 17.80ZM189.42 22L187.22 22L187.22 13.60L189.18 13.60L192.13 18.45L195.02 13.60L196.97 13.60L196.99 22L194.81 22L194.79 17.55L192.63 21.17L191.57 21.17L189.42 17.67L189.42 22ZM201.73 17.80L201.73 17.80Q201.73 16.55 202.33 15.55Q202.93 14.56 204.00 14.00Q205.06 13.43 206.39 13.43L206.39 13.43Q207.72 13.43 208.78 14.00Q209.85 14.56 210.45 15.55Q211.06 16.55 211.06 17.80L211.06 17.80Q211.06 19.05 210.45 20.04Q209.85 21.04 208.79 21.60Q207.73 22.17 206.39 22.17L206.39 22.17Q205.06 22.17 204.00 21.60Q202.93 21.04 202.33 20.04Q201.73 19.05 201.73 17.80ZM204.12 17.80L204.12 17.80Q204.12 18.51 204.42 19.05Q204.73 19.60 205.24 19.90Q205.76 20.20 206.39 20.20L206.39 20.20Q207.03 20.20 207.54 19.90Q208.06 19.60 208.36 19.05Q208.66 18.51 208.66 17.80L208.66 17.80Q208.66 17.09 208.36 16.54Q208.06 16 207.54 15.70Q207.03 15.40 206.39 15.40L206.39 15.40Q205.75 15.40 205.24 15.70Q204.73 16 204.42 16.54Q204.12 17.09 204.12 17.80ZM215.72 18.26L215.72 18.26L215.72 13.60L218.10 13.60L218.10 18.19Q218.10 20.20 219.69 20.20L219.69 20.20Q221.27 20.20 221.27 18.19L221.27 18.19L221.27 13.60L223.62 13.60L223.62 18.26Q223.62 20.13 222.58 21.15Q221.54 22.17 219.67 22.17L219.67 22.17Q217.79 22.17 216.75 21.15Q215.72 20.13 215.72 18.26ZM228.12 21.24L228.12 21.24L228.90 19.49Q229.46 19.86 230.20 20.09Q230.95 20.32 231.67 20.32L231.67 20.32Q233.03 20.32 233.04 19.64L233.04 19.64Q233.04 19.28 232.65 19.11Q232.26 18.93 231.39 18.74L231.39 18.74Q230.44 18.53 229.81 18.30Q229.17 18.06 228.72 17.55Q228.26 17.03 228.26 16.16L228.26 16.16Q228.26 15.39 228.68 14.77Q229.10 14.15 229.94 13.79Q230.77 13.43 231.98 13.43L231.98 13.43Q232.80 13.43 233.61 13.62Q234.41 13.80 235.03 14.17L235.03 14.17L234.30 15.93Q233.10 15.28 231.97 15.28L231.97 15.28Q231.26 15.28 230.93 15.49Q230.61 15.70 230.61 16.04L230.61 16.04Q230.61 16.37 231.00 16.54Q231.38 16.71 232.23 16.89L232.23 16.89Q233.19 17.10 233.82 17.33Q234.45 17.56 234.91 18.07Q235.38 18.58 235.38 19.46L235.38 19.46Q235.38 20.21 234.96 20.83Q234.54 21.44 233.70 21.80Q232.86 22.17 231.66 22.17L231.66 22.17Q230.64 22.17 229.67 21.92Q228.71 21.67 228.12 21.24ZM246.34 21.24L246.34 21.24L247.12 19.49Q247.68 19.86 248.42 20.09Q249.17 20.32 249.89 20.32L249.89 20.32Q251.25 20.32 251.26 19.64L251.26 19.64Q251.26 19.28 250.87 19.11Q250.48 18.93 249.61 18.74L249.61 18.74Q248.66 18.53 248.03 18.30Q247.39 18.06 246.94 17.55Q246.49 17.03 246.49 16.16L246.49 16.16Q246.49 15.39 246.90 14.77Q247.32 14.15 248.16 13.79Q248.99 13.43 250.20 13.43L250.20 13.43Q251.03 13.43 251.83 13.62Q252.64 13.80 253.25 14.17L253.25 14.17L252.52 15.93Q251.32 15.28 250.19 15.28L250.19 15.28Q249.48 15.28 249.16 15.49Q248.83 15.70 248.83 16.04L248.83 16.04Q248.83 16.37 249.22 16.54Q249.60 16.71 250.45 16.89L250.45 16.89Q251.41 17.10 252.04 17.33Q252.67 17.56 253.14 18.07Q253.60 18.58 253.60 19.46L253.60 19.46Q253.60 20.21 253.18 20.83Q252.76 21.44 251.92 21.80Q251.08 22.17 249.88 22.17L249.88 22.17Q248.86 22.17 247.90 21.92Q246.94 21.67 246.34 21.24ZM260.30 18.95L257.10 13.60L259.60 13.60L261.60 16.94L263.59 13.60L265.89 13.60L262.67 18.99L262.67 22L260.30 22L260.30 18.95ZM269.39 21.24L269.39 21.24L270.17 19.49Q270.73 19.86 271.48 20.09Q272.22 20.32 272.94 20.32L272.94 20.32Q274.31 20.32 274.31 19.64L274.31 19.64Q274.31 19.28 273.92 19.11Q273.53 18.93 272.66 18.74L272.66 18.74Q271.72 18.53 271.08 18.30Q270.44 18.06 269.99 17.55Q269.54 17.03 269.54 16.16L269.54 16.16Q269.54 15.39 269.95 14.77Q270.37 14.15 271.21 13.79Q272.04 13.43 273.25 13.43L273.25 13.43Q274.08 13.43 274.88 13.62Q275.69 13.80 276.30 14.17L276.30 14.17L275.57 15.93Q274.37 15.28 273.24 15.28L273.24 15.28Q272.53 15.28 272.21 15.49Q271.89 15.70 271.89 16.04L271.89 16.04Q271.89 16.37 272.27 16.54Q272.65 16.71 273.50 16.89L273.50 16.89Q274.46 17.10 275.09 17.33Q275.72 17.56 276.19 18.07Q276.65 18.58 276.65 19.46L276.65 19.46Q276.65 20.21 276.23 20.83Q275.81 21.44 274.97 21.80Q274.13 22.17 272.93 22.17L272.93 22.17Q271.91 22.17 270.95 21.92Q269.99 21.67 269.39 21.24ZM283.02 15.48L280.43 15.48L280.43 13.60L287.96 13.60L287.96 15.48L285.39 15.48L285.39 22L283.02 22L283.02 15.48ZM299.07 22L292.33 22L292.33 13.60L298.92 13.60L298.92 15.44L294.68 15.44L294.68 16.85L298.42 16.85L298.42 18.63L294.68 18.63L294.68 20.17L299.07 20.17L299.07 22ZM306.07 22L303.88 22L303.88 13.60L305.83 13.60L308.79 18.45L311.67 13.60L313.62 13.60L313.65 22L311.47 22L311.44 17.55L309.28 21.17L308.23 21.17L306.07 17.67L306.07 22Z" fill="#FFFFFF" x="108.68"/></svg>