<svg xmlns="http://www.w3.org/2000/svg" width="412.96" height="35" viewBox="0 0 412.96 35"><rect class="svg__rect" x="0" y="0" width="115.31" height="35" fill="#DF6377"/><rect class="svg__rect" x="113.31" y="0" width="299.65" height="35" fill="#0BEFD4"/><path class="svg__text" d="M15.69 22L14.22 22L14.22 13.47L16.14 13.47L18.60 20.01L21.06 13.47L22.97 13.47L22.97 22L21.49 22L21.49 19.19L21.64 15.43L19.12 22L18.06 22L15.55 15.43L15.69 19.19L15.69 22ZM28.49 22L26.95 22L30.17 13.47L31.50 13.47L34.73 22L33.18 22L32.49 20.01L29.18 20.01L28.49 22ZM30.83 15.28L29.60 18.82L32.07 18.82L30.83 15.28ZM41.14 22L38.69 22L38.69 13.47L41.21 13.47Q42.34 13.47 43.21 13.97Q44.09 14.48 44.57 15.40Q45.05 16.33 45.05 17.52L45.05 17.52L45.05 17.95Q45.05 19.16 44.57 20.08Q44.08 21.00 43.19 21.50Q42.30 22 41.14 22L41.14 22ZM40.17 14.66L40.17 20.82L41.14 20.82Q42.30 20.82 42.93 20.09Q43.55 19.36 43.56 17.99L43.56 17.99L43.56 17.52Q43.56 16.13 42.96 15.40Q42.35 14.66 41.21 14.66L41.21 14.66L40.17 14.66ZM55.09 22L49.51 22L49.51 13.47L55.05 13.47L55.05 14.66L51.00 14.66L51.00 17.02L54.50 17.02L54.50 18.19L51.00 18.19L51.00 20.82L55.09 20.82L55.09 22ZM66.65 22L64.68 13.47L66.15 13.47L67.47 19.88L69.10 13.47L70.34 13.47L71.96 19.89L73.27 13.47L74.74 13.47L72.77 22L71.35 22L69.73 15.77L68.07 22L66.65 22ZM80.38 22L78.90 22L78.90 13.47L80.38 13.47L80.38 22ZM86.87 14.66L84.23 14.66L84.23 13.47L91.00 13.47L91.00 14.66L88.34 14.66L88.34 22L86.87 22L86.87 14.66ZM96.24 22L94.75 22L94.75 13.47L96.24 13.47L96.24 17.02L100.05 17.02L100.05 13.47L101.53 13.47L101.53 22L100.05 22L100.05 18.21L96.24 18.21L96.24 22Z" fill="#FFFFFF"/><path class="svg__text" d="M129.88 22L127.50 22L127.50 13.60L131.34 13.60Q132.48 13.60 133.32 13.98Q134.16 14.35 134.62 15.06Q135.07 15.76 135.07 16.71L135.07 16.71Q135.07 17.62 134.65 18.30Q134.22 18.98 133.43 19.36L133.43 19.36L135.24 22L132.70 22L131.17 19.77L129.88 19.77L129.88 22ZM129.88 15.47L129.88 17.93L131.20 17.93Q131.93 17.93 132.30 17.61Q132.67 17.29 132.67 16.71L132.67 16.71Q132.67 16.12 132.30 15.79Q131.93 15.47 131.20 15.47L131.20 15.47L129.88 15.47ZM141.28 22L138.85 22L142.56 13.60L144.91 13.60L148.62 22L146.15 22L145.49 20.37L141.94 20.37L141.28 22ZM143.72 15.93L142.63 18.61L144.79 18.61L143.72 15.93ZM152.19 21.24L152.19 21.24L152.97 19.49Q153.53 19.86 154.28 20.09Q155.02 20.32 155.74 20.32L155.74 20.32Q157.11 20.32 157.11 19.64L157.11 19.64Q157.11 19.28 156.72 19.11Q156.33 18.93 155.46 18.74L155.46 18.74Q154.52 18.53 153.88 18.30Q153.24 18.06 152.79 17.55Q152.34 17.03 152.34 16.16L152.34 16.16Q152.34 15.39 152.75 14.77Q153.17 14.15 154.01 13.79Q154.84 13.43 156.05 13.43L156.05 13.43Q156.88 13.43 157.68 13.62Q158.49 13.80 159.10 14.17L159.10 14.17L158.37 15.93Q157.17 15.28 156.04 15.28L156.04 15.28Q155.33 15.28 155.01 15.49Q154.69 15.70 154.69 16.04L154.69 16.04Q154.69 16.37 155.07 16.54Q155.45 16.71 156.30 16.89L156.30 16.89Q157.26 17.10 157.89 17.33Q158.52 17.56 158.99 18.07Q159.45 18.58 159.45 19.46L159.45 19.46Q159.45 20.21 159.03 20.83Q158.61 21.44 157.77 21.80Q156.93 22.17 155.73 22.17L155.73 22.17Q154.71 22.17 153.75 21.92Q152.79 21.67 152.19 21.24ZM166.40 22L164.03 22L164.03 13.60L167.87 13.60Q169.01 13.60 169.85 13.98Q170.69 14.35 171.14 15.06Q171.60 15.76 171.60 16.71L171.60 16.71Q171.60 17.66 171.14 18.35Q170.69 19.05 169.85 19.42Q169.01 19.80 167.87 19.80L167.87 19.80L166.40 19.80L166.40 22ZM166.40 15.47L166.40 17.93L167.72 17.93Q168.45 17.93 168.83 17.61Q169.20 17.29 169.20 16.71L169.20 16.71Q169.20 16.12 168.83 15.80Q168.45 15.47 167.72 15.47L167.72 15.47L166.40 15.47ZM180.89 22L176.35 22L176.35 13.60L180.65 13.60Q182.26 13.60 183.10 14.19Q183.94 14.79 183.94 15.79L183.94 15.79Q183.94 16.39 183.65 16.87Q183.35 17.34 182.81 17.62L182.81 17.62Q183.53 17.87 183.94 18.41Q184.35 18.94 184.35 19.70L184.35 19.70Q184.35 20.80 183.46 21.40Q182.57 22 180.89 22L180.89 22ZM178.71 18.58L178.71 20.28L180.70 20.28Q181.95 20.28 181.95 19.43L181.95 19.43Q181.95 18.58 180.70 18.58L180.70 18.58L178.71 18.58ZM178.71 15.31L178.71 16.94L180.34 16.94Q181.54 16.94 181.54 16.12L181.54 16.12Q181.54 15.31 180.34 15.31L180.34 15.31L178.71 15.31ZM195.81 22L189.06 22L189.06 13.60L195.65 13.60L195.65 15.44L191.42 15.44L191.42 16.85L195.15 16.85L195.15 18.63L191.42 18.63L191.42 20.17L195.81 20.17L195.81 22ZM202.99 22L200.61 22L200.61 13.60L204.45 13.60Q205.60 13.60 206.44 13.98Q207.27 14.35 207.73 15.06Q208.19 15.76 208.19 16.71L208.19 16.71Q208.19 17.62 207.76 18.30Q207.33 18.98 206.54 19.36L206.54 19.36L208.35 22L205.81 22L204.28 19.77L202.99 19.77L202.99 22ZM202.99 15.47L202.99 17.93L204.31 17.93Q205.04 17.93 205.41 17.61Q205.78 17.29 205.78 16.71L205.78 16.71Q205.78 16.12 205.41 15.79Q205.04 15.47 204.31 15.47L204.31 15.47L202.99 15.47ZM215.35 22L212.97 22L212.97 13.60L216.82 13.60Q217.96 13.60 218.80 13.98Q219.64 14.35 220.09 15.06Q220.55 15.76 220.55 16.71L220.55 16.71Q220.55 17.62 220.12 18.30Q219.70 18.98 218.90 19.36L218.90 19.36L220.71 22L218.17 22L216.65 19.77L215.35 19.77L215.35 22ZM215.35 15.47L215.35 17.93L216.67 17.93Q217.40 17.93 217.78 17.61Q218.15 17.29 218.15 16.71L218.15 16.71Q218.15 16.12 217.78 15.79Q217.40 15.47 216.67 15.47L216.67 15.47L215.35 15.47ZM227.46 18.95L224.26 13.60L226.77 13.60L228.76 16.94L230.75 13.60L233.05 13.60L229.84 18.99L229.84 22L227.46 22L227.46 18.95ZM246.49 22L244.11 22L244.11 13.60L247.95 13.60Q249.09 13.60 249.93 13.98Q250.77 14.35 251.23 15.06Q251.69 15.76 251.69 16.71L251.69 16.71Q251.69 17.66 251.23 18.35Q250.77 19.05 249.93 19.42Q249.09 19.80 247.95 19.80L247.95 19.80L246.49 19.80L246.49 22ZM246.49 15.47L246.49 17.93L247.81 17.93Q248.54 17.93 248.91 17.61Q249.28 17.29 249.28 16.71L249.28 16.71Q249.28 16.12 248.91 15.80Q248.54 15.47 247.81 15.47L247.81 15.47L246.49 15.47ZM258.82 22L256.44 22L256.44 13.60L258.82 13.60L258.82 22ZM272.76 15.48L270.17 15.48L270.17 13.60L277.70 13.60L277.70 15.48L275.13 15.48L275.13 22L272.76 22L272.76 15.48ZM281.64 17.80L281.64 17.80Q281.64 16.55 282.24 15.55Q282.85 14.56 283.91 14.00Q284.97 13.43 286.30 13.43L286.30 13.43Q287.63 13.43 288.70 14.00Q289.76 14.56 290.37 15.55Q290.97 16.55 290.97 17.80L290.97 17.80Q290.97 19.05 290.37 20.04Q289.76 21.04 288.70 21.60Q287.64 22.17 286.30 22.17L286.30 22.17Q284.97 22.17 283.91 21.60Q282.85 21.04 282.24 20.04Q281.64 19.05 281.64 17.80ZM284.04 17.80L284.04 17.80Q284.04 18.51 284.34 19.05Q284.64 19.60 285.16 19.90Q285.67 20.20 286.30 20.20L286.30 20.20Q286.94 20.20 287.46 19.90Q287.97 19.60 288.27 19.05Q288.57 18.51 288.57 17.80L288.57 17.80Q288.57 17.09 288.27 16.54Q287.97 16 287.46 15.70Q286.94 15.40 286.30 15.40L286.30 15.40Q285.67 15.40 285.15 15.70Q284.64 16 284.34 16.54Q284.04 17.09 284.04 17.80ZM295.63 18.26L295.63 18.26L295.63 13.60L298.01 13.60L298.01 18.19Q298.01 20.20 299.61 20.20L299.61 20.20Q301.19 20.20 301.19 18.19L301.19 18.19L301.19 13.60L303.53 13.60L303.53 18.26Q303.53 20.13 302.49 21.15Q301.45 22.17 299.58 22.17L299.58 22.17Q297.71 22.17 296.67 21.15Q295.63 20.13 295.63 18.26ZM308.19 17.80L308.19 17.80Q308.19 16.54 308.79 15.54Q309.38 14.55 310.44 13.99Q311.49 13.43 312.81 13.43L312.81 13.43Q313.96 13.43 314.88 13.84Q315.81 14.25 316.42 15.02L316.42 15.02L314.91 16.39Q314.10 15.40 312.93 15.40L312.93 15.40Q312.24 15.40 311.71 15.70Q311.18 16 310.88 16.54Q310.59 17.09 310.59 17.80L310.59 17.80Q310.59 18.51 310.88 19.05Q311.18 19.60 311.71 19.90Q312.24 20.20 312.93 20.20L312.93 20.20Q314.10 20.20 314.91 19.22L314.91 19.22L316.42 20.58Q315.81 21.35 314.89 21.76Q313.96 22.17 312.81 22.17L312.81 22.17Q311.49 22.17 310.44 21.61Q309.38 21.05 308.79 20.05Q308.19 19.06 308.19 17.80ZM323.34 22L320.96 22L320.96 13.60L323.34 13.60L323.34 16.76L326.58 16.76L326.58 13.60L328.95 13.60L328.95 22L326.58 22L326.58 18.72L323.34 18.72L323.34 22ZM333.53 21.24L333.53 21.24L334.30 19.49Q334.87 19.86 335.61 20.09Q336.36 20.32 337.08 20.32L337.08 20.32Q338.44 20.32 338.45 19.64L338.45 19.64Q338.45 19.28 338.06 19.11Q337.67 18.93 336.80 18.74L336.80 18.74Q335.85 18.53 335.22 18.30Q334.58 18.06 334.13 17.55Q333.67 17.03 333.67 16.16L333.67 16.16Q333.67 15.39 334.09 14.77Q334.51 14.15 335.34 13.79Q336.18 13.43 337.39 13.43L337.39 13.43Q338.21 13.43 339.02 13.62Q339.82 13.80 340.44 14.17L340.44 14.17L339.71 15.93Q338.51 15.28 337.37 15.28L337.37 15.28Q336.67 15.28 336.34 15.49Q336.02 15.70 336.02 16.04L336.02 16.04Q336.02 16.37 336.41 16.54Q336.79 16.71 337.64 16.89L337.64 16.89Q338.60 17.10 339.23 17.33Q339.86 17.56 340.32 18.07Q340.79 18.58 340.79 19.46L340.79 19.46Q340.79 20.21 340.37 20.83Q339.95 21.44 339.11 21.80Q338.27 22.17 337.06 22.17L337.06 22.17Q336.04 22.17 335.08 21.92Q334.12 21.67 333.53 21.24ZM344.93 17.80L344.93 17.80Q344.93 16.54 345.53 15.54Q346.13 14.55 347.18 13.99Q348.23 13.43 349.55 13.43L349.55 13.43Q350.70 13.43 351.63 13.84Q352.55 14.25 353.17 15.02L353.17 15.02L351.65 16.39Q350.84 15.40 349.67 15.40L349.67 15.40Q348.99 15.40 348.45 15.70Q347.92 16 347.63 16.54Q347.33 17.09 347.33 17.80L347.33 17.80Q347.33 18.51 347.63 19.05Q347.92 19.60 348.45 19.90Q348.99 20.20 349.67 20.20L349.67 20.20Q350.84 20.20 351.65 19.22L351.65 19.22L353.17 20.58Q352.56 21.35 351.63 21.76Q350.70 22.17 349.55 22.17L349.55 22.17Q348.23 22.17 347.18 21.61Q346.13 21.05 345.53 20.05Q344.93 19.06 344.93 17.80ZM360.08 22L357.70 22L357.70 13.60L361.54 13.60Q362.69 13.60 363.53 13.98Q364.36 14.35 364.82 15.06Q365.28 15.76 365.28 16.71L365.28 16.71Q365.28 17.62 364.85 18.30Q364.42 18.98 363.63 19.36L363.63 19.36L365.44 22L362.90 22L361.37 19.77L360.08 19.77L360.08 22ZM360.08 15.47L360.08 17.93L361.40 17.93Q362.13 17.93 362.50 17.61Q362.87 17.29 362.87 16.71L362.87 16.71Q362.87 16.12 362.50 15.79Q362.13 15.47 361.40 15.47L361.40 15.47L360.08 15.47ZM376.81 22L370.06 22L370.06 13.60L376.66 13.60L376.66 15.44L372.42 15.44L372.42 16.85L376.15 16.85L376.15 18.63L372.42 18.63L372.42 20.17L376.81 20.17L376.81 22ZM388.36 22L381.61 22L381.61 13.60L388.20 13.60L388.20 15.44L383.97 15.44L383.97 16.85L387.70 16.85L387.70 18.63L383.97 18.63L383.97 20.17L388.36 20.17L388.36 22ZM395.49 22L393.16 22L393.16 13.60L395.12 13.60L398.83 18.07L398.83 13.60L401.15 13.60L401.15 22L399.20 22L395.49 17.52L395.49 22Z" fill="#FFFFFF" x="126.31"/></svg>