<svg xmlns="http://www.w3.org/2000/svg" width="296.12" height="35" viewBox="0 0 296.12 35"><rect class="svg__rect" x="0" y="0" width="95.96000000000001" height="35" fill="#0E19EF"/><rect class="svg__rect" x="93.96000000000001" y="0" width="202.16" height="35" fill="#FF2D00"/><path class="svg__text" d="M15.69 22L14.22 22L14.22 13.47L16.14 13.47L18.60 20.01L21.06 13.47L22.97 13.47L22.97 22L21.49 22L21.49 19.19L21.64 15.43L19.12 22L18.06 22L15.55 15.43L15.69 19.19L15.69 22ZM28.49 22L26.95 22L30.17 13.47L31.50 13.47L34.73 22L33.18 22L32.49 20.01L29.18 20.01L28.49 22ZM30.83 15.28L29.60 18.82L32.07 18.82L30.83 15.28ZM41.14 22L38.69 22L38.69 13.47L41.21 13.47Q42.34 13.47 43.21 13.97Q44.09 14.48 44.57 15.40Q45.05 16.33 45.05 17.52L45.05 17.52L45.05 17.95Q45.05 19.16 44.57 20.08Q44.08 21.00 43.19 21.50Q42.30 22 41.14 22L41.14 22ZM40.17 14.66L40.17 20.82L41.14 20.82Q42.30 20.82 42.93 20.09Q43.55 19.36 43.56 17.99L43.56 17.99L43.56 17.52Q43.56 16.13 42.96 15.40Q42.35 14.66 41.21 14.66L41.21 14.66L40.17 14.66ZM55.09 22L49.51 22L49.51 13.47L55.05 13.47L55.05 14.66L51.00 14.66L51.00 17.02L54.50 17.02L54.50 18.19L51.00 18.19L51.00 20.82L55.09 20.82L55.09 22ZM66.04 22L64.50 22L67.72 13.47L69.06 13.47L72.28 22L70.74 22L70.04 20.01L66.73 20.01L66.04 22ZM68.39 15.28L67.15 18.82L69.62 18.82L68.39 15.28ZM75.81 19.42L75.81 19.42L77.29 19.42Q77.29 20.15 77.77 20.55Q78.25 20.95 79.14 20.95L79.14 20.95Q79.92 20.95 80.31 20.63Q80.70 20.32 80.70 19.80L80.70 19.80Q80.70 19.24 80.30 18.94Q79.91 18.63 78.88 18.32Q77.84 18.01 77.23 17.63L77.23 17.63Q76.07 16.90 76.07 15.72L76.07 15.72Q76.07 14.69 76.91 14.02Q77.75 13.35 79.09 13.35L79.09 13.35Q79.98 13.35 80.68 13.68Q81.38 14.01 81.78 14.61Q82.17 15.22 82.17 15.96L82.17 15.96L80.70 15.96Q80.70 15.29 80.28 14.91Q79.86 14.54 79.08 14.54L79.08 14.54Q78.35 14.54 77.95 14.85Q77.55 15.16 77.55 15.71L77.55 15.71Q77.55 16.18 77.98 16.50Q78.42 16.81 79.41 17.10Q80.41 17.40 81.01 17.78Q81.62 18.16 81.90 18.65Q82.18 19.13 82.18 19.79L82.18 19.79Q82.18 20.86 81.36 21.49Q80.55 22.12 79.14 22.12L79.14 22.12Q78.22 22.12 77.44 21.77Q76.67 21.43 76.24 20.83Q75.81 20.22 75.81 19.42Z" fill="#FFFFFF"/><path class="svg__text" d="M114.89 22L108.15 22L108.15 13.60L114.74 13.60L114.74 15.44L110.50 15.44L110.50 16.85L114.24 16.85L114.24 18.63L110.50 18.63L110.50 20.17L114.89 20.17L114.89 22ZM121.89 22L119.70 22L119.70 13.60L121.65 13.60L124.61 18.45L127.49 13.60L129.44 13.60L129.46 22L127.28 22L127.26 17.55L125.10 21.17L124.04 21.17L121.89 17.67L121.89 22ZM139.17 22L134.63 22L134.63 13.60L138.93 13.60Q140.53 13.60 141.37 14.19Q142.21 14.79 142.21 15.79L142.21 15.79Q142.21 16.39 141.92 16.87Q141.62 17.34 141.08 17.62L141.08 17.62Q141.80 17.87 142.21 18.41Q142.62 18.94 142.62 19.70L142.62 19.70Q142.62 20.80 141.73 21.40Q140.84 22 139.17 22L139.17 22ZM136.98 18.58L136.98 20.28L138.97 20.28Q140.22 20.28 140.22 19.43L140.22 19.43Q140.22 18.58 138.97 18.58L138.97 18.58L136.98 18.58ZM136.98 15.31L136.98 16.94L138.61 16.94Q139.81 16.94 139.81 16.12L139.81 16.12Q139.81 15.31 138.61 15.31L138.61 15.31L136.98 15.31ZM154.08 22L147.34 22L147.34 13.60L153.93 13.60L153.93 15.44L149.69 15.44L149.69 16.85L153.42 16.85L153.42 18.63L149.69 18.63L149.69 20.17L154.08 20.17L154.08 22ZM162.86 22L158.88 22L158.88 13.60L162.86 13.60Q164.24 13.60 165.31 14.12Q166.37 14.63 166.96 15.58Q167.55 16.53 167.55 17.80L167.55 17.80Q167.55 19.07 166.96 20.02Q166.37 20.97 165.31 21.48Q164.24 22 162.86 22L162.86 22ZM161.26 15.50L161.26 20.10L162.76 20.10Q163.84 20.10 164.49 19.49Q165.15 18.88 165.15 17.80L165.15 17.80Q165.15 16.72 164.49 16.11Q163.84 15.50 162.76 15.50L162.76 15.50L161.26 15.50ZM176.25 22L172.28 22L172.28 13.60L176.25 13.60Q177.63 13.60 178.70 14.12Q179.77 14.63 180.36 15.58Q180.94 16.53 180.94 17.80L180.94 17.80Q180.94 19.07 180.36 20.02Q179.77 20.97 178.70 21.48Q177.63 22 176.25 22L176.25 22ZM174.66 15.50L174.66 20.10L176.16 20.10Q177.24 20.10 177.89 19.49Q178.54 18.88 178.54 17.80L178.54 17.80Q178.54 16.72 177.89 16.11Q177.24 15.50 176.16 15.50L176.16 15.50L174.66 15.50ZM192.42 22L185.67 22L185.67 13.60L192.27 13.60L192.27 15.44L188.03 15.44L188.03 16.85L191.76 16.85L191.76 18.63L188.03 18.63L188.03 20.17L192.42 20.17L192.42 22ZM201.19 22L197.22 22L197.22 13.60L201.19 13.60Q202.58 13.60 203.64 14.12Q204.71 14.63 205.30 15.58Q205.89 16.53 205.89 17.80L205.89 17.80Q205.89 19.07 205.30 20.02Q204.71 20.97 203.64 21.48Q202.58 22 201.19 22L201.19 22ZM199.60 15.50L199.60 20.10L201.10 20.10Q202.18 20.10 202.83 19.49Q203.49 18.88 203.49 17.80L203.49 17.80Q203.49 16.72 202.83 16.11Q202.18 15.50 201.10 15.50L201.10 15.50L199.60 15.50ZM217.00 21.24L217.00 21.24L217.78 19.49Q218.35 19.86 219.09 20.09Q219.83 20.32 220.55 20.32L220.55 20.32Q221.92 20.32 221.93 19.64L221.93 19.64Q221.93 19.28 221.54 19.11Q221.15 18.93 220.28 18.74L220.28 18.74Q219.33 18.53 218.69 18.30Q218.06 18.06 217.60 17.55Q217.15 17.03 217.15 16.16L217.15 16.16Q217.15 15.39 217.57 14.77Q217.99 14.15 218.82 13.79Q219.66 13.43 220.86 13.43L220.86 13.43Q221.69 13.43 222.50 13.62Q223.30 13.80 223.92 14.17L223.92 14.17L223.19 15.93Q221.98 15.28 220.85 15.28L220.85 15.28Q220.14 15.28 219.82 15.49Q219.50 15.70 219.50 16.04L219.50 16.04Q219.50 16.37 219.88 16.54Q220.27 16.71 221.12 16.89L221.12 16.89Q222.08 17.10 222.71 17.33Q223.34 17.56 223.80 18.07Q224.26 18.58 224.26 19.46L224.26 19.46Q224.26 20.21 223.84 20.83Q223.43 21.44 222.58 21.80Q221.74 22.17 220.54 22.17L220.54 22.17Q219.52 22.17 218.56 21.92Q217.60 21.67 217.00 21.24ZM230.97 18.95L227.76 13.60L230.27 13.60L232.26 16.94L234.25 13.60L236.56 13.60L233.34 18.99L233.34 22L230.97 22L230.97 18.95ZM240.05 21.24L240.05 21.24L240.83 19.49Q241.40 19.86 242.14 20.09Q242.88 20.32 243.60 20.32L243.60 20.32Q244.97 20.32 244.98 19.64L244.98 19.64Q244.98 19.28 244.59 19.11Q244.20 18.93 243.33 18.74L243.33 18.74Q242.38 18.53 241.74 18.30Q241.11 18.06 240.65 17.55Q240.20 17.03 240.20 16.16L240.20 16.16Q240.20 15.39 240.62 14.77Q241.04 14.15 241.87 13.79Q242.71 13.43 243.92 13.43L243.92 13.43Q244.74 13.43 245.55 13.62Q246.35 13.80 246.97 14.17L246.97 14.17L246.24 15.93Q245.03 15.28 243.90 15.28L243.90 15.28Q243.19 15.28 242.87 15.49Q242.55 15.70 242.55 16.04L242.55 16.04Q242.55 16.37 242.93 16.54Q243.32 16.71 244.17 16.89L244.17 16.89Q245.13 17.10 245.76 17.33Q246.39 17.56 246.85 18.07Q247.31 18.58 247.31 19.46L247.31 19.46Q247.31 20.21 246.89 20.83Q246.48 21.44 245.64 21.80Q244.79 22.17 243.59 22.17L243.59 22.17Q242.57 22.17 241.61 21.92Q240.65 21.67 240.05 21.24ZM253.68 15.48L251.10 15.48L251.10 13.60L258.62 13.60L258.62 15.48L256.06 15.48L256.06 22L253.68 22L253.68 15.48ZM269.74 22L262.99 22L262.99 13.60L269.59 13.60L269.59 15.44L265.35 15.44L265.35 16.85L269.08 16.85L269.08 18.63L265.35 18.63L265.35 20.17L269.74 20.17L269.74 22ZM276.74 22L274.54 22L274.54 13.60L276.50 13.60L279.45 18.45L282.34 13.60L284.29 13.60L284.31 22L282.13 22L282.11 17.55L279.94 21.17L278.89 21.17L276.74 17.67L276.74 22Z" fill="#FFFFFF" x="106.96000000000001"/></svg>