<svg xmlns="http://www.w3.org/2000/svg" width="317.8" height="35" viewBox="0 0 317.8 35"><rect class="svg__rect" x="0" y="0" width="115.31" height="35" fill="#DF6377"/><rect class="svg__rect" x="113.31" y="0" width="204.49" height="35" fill="#EFEB0B"/><path class="svg__text" d="M15.69 22L14.22 22L14.22 13.47L16.14 13.47L18.60 20.01L21.06 13.47L22.97 13.47L22.97 22L21.49 22L21.49 19.19L21.64 15.43L19.12 22L18.06 22L15.55 15.43L15.69 19.19L15.69 22ZM28.49 22L26.95 22L30.17 13.47L31.50 13.47L34.73 22L33.18 22L32.49 20.01L29.18 20.01L28.49 22ZM30.83 15.28L29.60 18.82L32.07 18.82L30.83 15.28ZM41.14 22L38.69 22L38.69 13.47L41.21 13.47Q42.34 13.47 43.21 13.97Q44.09 14.48 44.57 15.40Q45.05 16.33 45.05 17.52L45.05 17.52L45.05 17.95Q45.05 19.16 44.57 20.08Q44.08 21.00 43.19 21.50Q42.30 22 41.14 22L41.14 22ZM40.17 14.66L40.17 20.82L41.14 20.82Q42.30 20.82 42.93 20.09Q43.55 19.36 43.56 17.99L43.56 17.99L43.56 17.52Q43.56 16.13 42.96 15.40Q42.35 14.66 41.21 14.66L41.21 14.66L40.17 14.66ZM55.09 22L49.51 22L49.51 13.47L55.05 13.47L55.05 14.66L51.00 14.66L51.00 17.02L54.50 17.02L54.50 18.19L51.00 18.19L51.00 20.82L55.09 20.82L55.09 22ZM66.65 22L64.68 13.47L66.15 13.47L67.47 19.88L69.10 13.47L70.34 13.47L71.96 19.89L73.27 13.47L74.74 13.47L72.77 22L71.35 22L69.73 15.77L68.07 22L66.65 22ZM80.38 22L78.90 22L78.90 13.47L80.38 13.47L80.38 22ZM86.87 14.66L84.23 14.66L84.23 13.47L91.00 13.47L91.00 14.66L88.34 14.66L88.34 22L86.87 22L86.87 14.66ZM96.24 22L94.75 22L94.75 13.47L96.24 13.47L96.24 17.02L100.05 17.02L100.05 13.47L101.53 13.47L101.53 22L100.05 22L100.05 18.21L96.24 18.21L96.24 22Z" fill="#FFFFFF"/><path class="svg__text" d="M129.88 22L127.50 22L127.50 13.60L131.34 13.60Q132.48 13.60 133.32 13.98Q134.16 14.35 134.62 15.06Q135.07 15.76 135.07 16.71L135.07 16.71Q135.07 17.62 134.65 18.30Q134.22 18.98 133.43 19.36L133.43 19.36L135.24 22L132.70 22L131.17 19.77L129.88 19.77L129.88 22ZM129.88 15.47L129.88 17.93L131.20 17.93Q131.93 17.93 132.30 17.61Q132.67 17.29 132.67 16.71L132.67 16.71Q132.67 16.12 132.30 15.79Q131.93 15.47 131.20 15.47L131.20 15.47L129.88 15.47ZM141.28 22L138.85 22L142.56 13.60L144.91 13.60L148.62 22L146.15 22L145.49 20.37L141.94 20.37L141.28 22ZM143.72 15.93L142.63 18.61L144.79 18.61L143.72 15.93ZM152.19 21.24L152.19 21.24L152.97 19.49Q153.53 19.86 154.28 20.09Q155.02 20.32 155.74 20.32L155.74 20.32Q157.11 20.32 157.11 19.64L157.11 19.64Q157.11 19.28 156.72 19.11Q156.33 18.93 155.46 18.74L155.46 18.74Q154.52 18.53 153.88 18.30Q153.24 18.06 152.79 17.55Q152.34 17.03 152.34 16.16L152.34 16.16Q152.34 15.39 152.75 14.77Q153.17 14.15 154.01 13.79Q154.84 13.43 156.05 13.43L156.05 13.43Q156.88 13.43 157.68 13.62Q158.49 13.80 159.10 14.17L159.10 14.17L158.37 15.93Q157.17 15.28 156.04 15.28L156.04 15.28Q155.33 15.28 155.01 15.49Q154.69 15.70 154.69 16.04L154.69 16.04Q154.69 16.37 155.07 16.54Q155.45 16.71 156.30 16.89L156.30 16.89Q157.26 17.10 157.89 17.33Q158.52 17.56 158.99 18.07Q159.45 18.58 159.45 19.46L159.45 19.46Q159.45 20.21 159.03 20.83Q158.61 21.44 157.77 21.80Q156.93 22.17 155.73 22.17L155.73 22.17Q154.71 22.17 153.75 21.92Q152.79 21.67 152.19 21.24ZM166.40 22L164.03 22L164.03 13.60L167.87 13.60Q169.01 13.60 169.85 13.98Q170.69 14.35 171.14 15.06Q171.60 15.76 171.60 16.71L171.60 16.71Q171.60 17.66 171.14 18.35Q170.69 19.05 169.85 19.42Q169.01 19.80 167.87 19.80L167.87 19.80L166.40 19.80L166.40 22ZM166.40 15.47L166.40 17.93L167.72 17.93Q168.45 17.93 168.83 17.61Q169.20 17.29 169.20 16.71L169.20 16.71Q169.20 16.12 168.83 15.80Q168.45 15.47 167.72 15.47L167.72 15.47L166.40 15.47ZM180.89 22L176.35 22L176.35 13.60L180.65 13.60Q182.26 13.60 183.10 14.19Q183.94 14.79 183.94 15.79L183.94 15.79Q183.94 16.39 183.65 16.87Q183.35 17.34 182.81 17.62L182.81 17.62Q183.53 17.87 183.94 18.41Q184.35 18.94 184.35 19.70L184.35 19.70Q184.35 20.80 183.46 21.40Q182.57 22 180.89 22L180.89 22ZM178.71 18.58L178.71 20.28L180.70 20.28Q181.95 20.28 181.95 19.43L181.95 19.43Q181.95 18.58 180.70 18.58L180.70 18.58L178.71 18.58ZM178.71 15.31L178.71 16.94L180.34 16.94Q181.54 16.94 181.54 16.12L181.54 16.12Q181.54 15.31 180.34 15.31L180.34 15.31L178.71 15.31ZM195.81 22L189.06 22L189.06 13.60L195.65 13.60L195.65 15.44L191.42 15.44L191.42 16.85L195.15 16.85L195.15 18.63L191.42 18.63L191.42 20.17L195.81 20.17L195.81 22ZM202.99 22L200.61 22L200.61 13.60L204.45 13.60Q205.60 13.60 206.44 13.98Q207.27 14.35 207.73 15.06Q208.19 15.76 208.19 16.71L208.19 16.71Q208.19 17.62 207.76 18.30Q207.33 18.98 206.54 19.36L206.54 19.36L208.35 22L205.81 22L204.28 19.77L202.99 19.77L202.99 22ZM202.99 15.47L202.99 17.93L204.31 17.93Q205.04 17.93 205.41 17.61Q205.78 17.29 205.78 16.71L205.78 16.71Q205.78 16.12 205.41 15.79Q205.04 15.47 204.31 15.47L204.31 15.47L202.99 15.47ZM215.35 22L212.97 22L212.97 13.60L216.82 13.60Q217.96 13.60 218.80 13.98Q219.64 14.35 220.09 15.06Q220.55 15.76 220.55 16.71L220.55 16.71Q220.55 17.62 220.12 18.30Q219.70 18.98 218.90 19.36L218.90 19.36L220.71 22L218.17 22L216.65 19.77L215.35 19.77L215.35 22ZM215.35 15.47L215.35 17.93L216.67 17.93Q217.40 17.93 217.78 17.61Q218.15 17.29 218.15 16.71L218.15 16.71Q218.15 16.12 217.78 15.79Q217.40 15.47 216.67 15.47L216.67 15.47L215.35 15.47ZM227.46 18.95L224.26 13.60L226.77 13.60L228.76 16.94L230.75 13.60L233.05 13.60L229.84 18.99L229.84 22L227.46 22L227.46 18.95ZM246.49 22L244.11 22L244.11 13.60L247.95 13.60Q249.09 13.60 249.93 13.98Q250.77 14.35 251.23 15.06Q251.69 15.76 251.69 16.71L251.69 16.71Q251.69 17.66 251.23 18.35Q250.77 19.05 249.93 19.42Q249.09 19.80 247.95 19.80L247.95 19.80L246.49 19.80L246.49 22ZM246.49 15.47L246.49 17.93L247.81 17.93Q248.54 17.93 248.91 17.61Q249.28 17.29 249.28 16.71L249.28 16.71Q249.28 16.12 248.91 15.80Q248.54 15.47 247.81 15.47L247.81 15.47L246.49 15.47ZM258.82 22L256.44 22L256.44 13.60L258.82 13.60L258.82 22ZM270.54 17.80L270.54 17.80Q270.54 16.54 271.13 15.54Q271.73 14.55 272.78 13.99Q273.84 13.43 275.15 13.43L275.15 13.43Q276.31 13.43 277.23 13.84Q278.15 14.25 278.77 15.02L278.77 15.02L277.26 16.39Q276.44 15.40 275.28 15.40L275.28 15.40Q274.59 15.40 274.06 15.70Q273.53 16 273.23 16.54Q272.93 17.09 272.93 17.80L272.93 17.80Q272.93 18.51 273.23 19.05Q273.53 19.60 274.06 19.90Q274.59 20.20 275.28 20.20L275.28 20.20Q276.44 20.20 277.26 19.22L277.26 19.22L278.77 20.58Q278.16 21.35 277.23 21.76Q276.31 22.17 275.15 22.17L275.15 22.17Q273.84 22.17 272.78 21.61Q271.73 21.05 271.13 20.05Q270.54 19.06 270.54 17.80ZM284.72 22L282.30 22L286.01 13.60L288.35 13.60L292.06 22L289.60 22L288.94 20.37L285.38 20.37L284.72 22ZM287.16 15.93L286.08 18.61L288.24 18.61L287.16 15.93ZM298.42 22L296.22 22L296.22 13.60L298.18 13.60L301.13 18.45L304.01 13.60L305.96 13.60L305.99 22L303.81 22L303.78 17.55L301.62 21.17L300.57 21.17L298.42 17.67L298.42 22Z" fill="#FFFFFF" x="126.31"/></svg>