<svg xmlns="http://www.w3.org/2000/svg" width="211.26000000000002" height="35" viewBox="0 0 211.26000000000002 35"><rect class="svg__rect" x="0" y="0" width="115.31" height="35" fill="#C13B3A"/><rect class="svg__rect" x="113.31" y="0" width="97.95000000000002" height="35" fill="#389AD5"/><path class="svg__text" d="M15.69 22L14.22 22L14.22 13.47L16.14 13.47L18.60 20.01L21.06 13.47L22.97 13.47L22.97 22L21.49 22L21.49 19.19L21.64 15.43L19.12 22L18.06 22L15.55 15.43L15.69 19.19L15.69 22ZM28.49 22L26.95 22L30.17 13.47L31.50 13.47L34.73 22L33.18 22L32.49 20.01L29.18 20.01L28.49 22ZM30.83 15.28L29.60 18.82L32.07 18.82L30.83 15.28ZM41.14 22L38.69 22L38.69 13.47L41.21 13.47Q42.34 13.47 43.21 13.97Q44.09 14.48 44.57 15.40Q45.05 16.33 45.05 17.52L45.05 17.52L45.05 17.95Q45.05 19.16 44.57 20.08Q44.08 21.00 43.19 21.50Q42.30 22 41.14 22L41.14 22ZM40.17 14.66L40.17 20.82L41.14 20.82Q42.30 20.82 42.93 20.09Q43.55 19.36 43.56 17.99L43.56 17.99L43.56 17.52Q43.56 16.13 42.96 15.40Q42.35 14.66 41.21 14.66L41.21 14.66L40.17 14.66ZM55.09 22L49.51 22L49.51 13.47L55.05 13.47L55.05 14.66L51.00 14.66L51.00 17.02L54.50 17.02L54.50 18.19L51.00 18.19L51.00 20.82L55.09 20.82L55.09 22ZM66.65 22L64.68 13.47L66.15 13.47L67.47 19.88L69.10 13.47L70.34 13.47L71.96 19.89L73.27 13.47L74.74 13.47L72.77 22L71.35 22L69.73 15.77L68.07 22L66.65 22ZM80.38 22L78.90 22L78.90 13.47L80.38 13.47L80.38 22ZM86.87 14.66L84.23 14.66L84.23 13.47L91.00 13.47L91.00 14.66L88.34 14.66L88.34 22L86.87 22L86.87 14.66ZM96.24 22L94.75 22L94.75 13.47L96.24 13.47L96.24 17.02L100.05 17.02L100.05 13.47L101.53 13.47L101.53 22L100.05 22L100.05 18.21L96.24 18.21L96.24 22Z" fill="#FFFFFF"/><path class="svg__text" d="M127.07 17.80L127.07 17.80Q127.07 16.55 127.67 15.55Q128.28 14.56 129.34 14.00Q130.40 13.43 131.73 13.43L131.73 13.43Q133.06 13.43 134.13 14.00Q135.19 14.56 135.80 15.55Q136.40 16.55 136.40 17.80L136.40 17.80Q136.40 19.05 135.80 20.04Q135.19 21.04 134.13 21.60Q133.07 22.17 131.73 22.17L131.73 22.17Q130.40 22.17 129.34 21.60Q128.28 21.04 127.67 20.04Q127.07 19.05 127.07 17.80ZM129.47 17.80L129.47 17.80Q129.47 18.51 129.77 19.05Q130.07 19.60 130.59 19.90Q131.10 20.20 131.73 20.20L131.73 20.20Q132.37 20.20 132.89 19.90Q133.40 19.60 133.70 19.05Q134.00 18.51 134.00 17.80L134.00 17.80Q134.00 17.09 133.70 16.54Q133.40 16 132.89 15.70Q132.37 15.40 131.73 15.40L131.73 15.40Q131.10 15.40 130.58 15.70Q130.07 16 129.77 16.54Q129.47 17.09 129.47 17.80ZM143.51 22L141.13 22L141.13 13.60L144.98 13.60Q146.11 13.60 146.95 13.98Q147.79 14.35 148.25 15.06Q148.71 15.76 148.71 16.71L148.71 16.71Q148.71 17.66 148.25 18.35Q147.79 19.05 146.95 19.42Q146.11 19.80 144.98 19.80L144.98 19.80L143.51 19.80L143.51 22ZM143.51 15.47L143.51 17.93L144.83 17.93Q145.56 17.93 145.93 17.61Q146.31 17.29 146.31 16.71L146.31 16.71Q146.31 16.12 145.93 15.80Q145.56 15.47 144.83 15.47L144.83 15.47L143.51 15.47ZM160.20 22L153.46 22L153.46 13.60L160.05 13.60L160.05 15.44L155.82 15.44L155.82 16.85L159.55 16.85L159.55 18.63L155.82 18.63L155.82 20.17L160.20 20.17L160.20 22ZM167.34 22L165.01 22L165.01 13.60L166.97 13.60L170.68 18.07L170.68 13.60L173.00 13.60L173.00 22L171.05 22L167.34 17.52L167.34 22ZM177.74 17.80L177.74 17.80Q177.74 16.54 178.33 15.54Q178.93 14.55 179.98 13.99Q181.03 13.43 182.35 13.43L182.35 13.43Q183.51 13.43 184.43 13.84Q185.35 14.25 185.97 15.02L185.97 15.02L184.46 16.39Q183.64 15.40 182.48 15.40L182.48 15.40Q181.79 15.40 181.26 15.70Q180.72 16 180.43 16.54Q180.13 17.09 180.13 17.80L180.13 17.80Q180.13 18.51 180.43 19.05Q180.72 19.60 181.26 19.90Q181.79 20.20 182.48 20.20L182.48 20.20Q183.64 20.20 184.46 19.22L184.46 19.22L185.97 20.58Q185.36 21.35 184.43 21.76Q183.51 22.17 182.35 22.17L182.35 22.17Q181.03 22.17 179.98 21.61Q178.93 21.05 178.33 20.05Q177.74 19.06 177.74 17.80ZM193.09 22L189.50 13.60L192.07 13.60L194.35 19.07L196.67 13.60L199.02 13.60L195.43 22L193.09 22Z" fill="#FFFFFF" x="126.31"/></svg>
