<svg xmlns="http://www.w3.org/2000/svg" width="258.11" height="35" viewBox="0 0 258.11 35"><rect class="svg__rect" x="0" y="0" width="64.89" height="35" fill="#E46C17"/><rect class="svg__rect" x="62.89" y="0" width="195.22" height="35" fill="#0D13DC"/><path class="svg__text" d="M14.08 19.16L14.08 19.16L14.08 13.47L15.56 13.47L15.56 19.18Q15.56 20.03 15.99 20.48Q16.43 20.93 17.27 20.93L17.27 20.93Q18.98 20.93 18.98 19.13L18.98 19.13L18.98 13.47L20.46 13.47L20.46 19.17Q20.46 20.53 19.59 21.32Q18.72 22.12 17.27 22.12L17.27 22.12Q15.81 22.12 14.94 21.33Q14.08 20.55 14.08 19.16ZM24.59 19.42L24.59 19.42L26.08 19.42Q26.08 20.15 26.56 20.55Q27.04 20.95 27.93 20.95L27.93 20.95Q28.71 20.95 29.10 20.63Q29.49 20.32 29.49 19.80L29.49 19.80Q29.49 19.24 29.09 18.94Q28.70 18.63 27.66 18.32Q26.63 18.01 26.02 17.63L26.02 17.63Q24.86 16.90 24.86 15.72L24.86 15.72Q24.86 14.69 25.70 14.02Q26.54 13.35 27.88 13.35L27.88 13.35Q28.77 13.35 29.47 13.68Q30.17 14.01 30.56 14.61Q30.96 15.22 30.96 15.96L30.96 15.96L29.49 15.96Q29.49 15.29 29.07 14.91Q28.65 14.54 27.87 14.54L27.87 14.54Q27.14 14.54 26.74 14.85Q26.34 15.16 26.34 15.71L26.34 15.71Q26.34 16.18 26.77 16.50Q27.21 16.81 28.20 17.10Q29.20 17.40 29.80 17.78Q30.41 18.16 30.69 18.65Q30.97 19.13 30.97 19.79L30.97 19.79Q30.97 20.86 30.15 21.49Q29.33 22.12 27.93 22.12L27.93 22.12Q27.01 22.12 26.23 21.77Q25.46 21.43 25.02 20.83Q24.59 20.22 24.59 19.42ZM40.84 22L35.26 22L35.26 13.47L40.80 13.47L40.80 14.66L36.74 14.66L36.74 17.02L40.24 17.02L40.24 18.19L36.74 18.19L36.74 20.82L40.84 20.82L40.84 22ZM44.60 19.42L44.60 19.42L46.08 19.42Q46.08 20.15 46.56 20.55Q47.04 20.95 47.94 20.95L47.94 20.95Q48.71 20.95 49.10 20.63Q49.49 20.32 49.49 19.80L49.49 19.80Q49.49 19.24 49.10 18.94Q48.70 18.63 47.67 18.32Q46.64 18.01 46.03 17.63L46.03 17.63Q44.86 16.90 44.86 15.72L44.86 15.72Q44.86 14.69 45.70 14.02Q46.54 13.35 47.89 13.35L47.89 13.35Q48.78 13.35 49.47 13.68Q50.17 14.01 50.57 14.61Q50.97 15.22 50.97 15.96L50.97 15.96L49.49 15.96Q49.49 15.29 49.07 14.91Q48.65 14.54 47.87 14.54L47.87 14.54Q47.15 14.54 46.75 14.85Q46.34 15.16 46.34 15.71L46.34 15.71Q46.34 16.18 46.78 16.50Q47.21 16.81 48.21 17.10Q49.20 17.40 49.81 17.78Q50.41 18.16 50.69 18.65Q50.97 19.13 50.97 19.79L50.97 19.79Q50.97 20.86 50.16 21.49Q49.34 22.12 47.94 22.12L47.94 22.12Q47.01 22.12 46.24 21.77Q45.46 21.43 45.03 20.83Q44.60 20.22 44.60 19.42Z" fill="#FFFFFF"/><path class="svg__text" d="M76.65 17.80L76.65 17.80Q76.65 16.54 77.25 15.54Q77.85 14.55 78.90 13.99Q79.95 13.43 81.27 13.43L81.27 13.43Q82.42 13.43 83.34 13.84Q84.27 14.25 84.88 15.02L84.88 15.02L83.37 16.39Q82.56 15.40 81.39 15.40L81.39 15.40Q80.70 15.40 80.17 15.70Q79.64 16 79.34 16.54Q79.05 17.09 79.05 17.80L79.05 17.80Q79.05 18.51 79.34 19.05Q79.64 19.60 80.17 19.90Q80.70 20.20 81.39 20.20L81.39 20.20Q82.56 20.20 83.37 19.22L83.37 19.22L84.88 20.58Q84.27 21.35 83.35 21.76Q82.42 22.17 81.27 22.17L81.27 22.17Q79.95 22.17 78.90 21.61Q77.85 21.05 77.25 20.05Q76.65 19.06 76.65 17.80ZM88.99 17.80L88.99 17.80Q88.99 16.55 89.59 15.55Q90.20 14.56 91.26 14.00Q92.32 13.43 93.65 13.43L93.65 13.43Q94.98 13.43 96.05 14.00Q97.11 14.56 97.72 15.55Q98.32 16.55 98.32 17.80L98.32 17.80Q98.32 19.05 97.72 20.04Q97.11 21.04 96.05 21.60Q94.99 22.17 93.65 22.17L93.65 22.17Q92.32 22.17 91.26 21.60Q90.20 21.04 89.59 20.04Q88.99 19.05 88.99 17.80ZM91.39 17.80L91.39 17.80Q91.39 18.51 91.69 19.05Q91.99 19.60 92.51 19.90Q93.02 20.20 93.65 20.20L93.65 20.20Q94.29 20.20 94.81 19.90Q95.32 19.60 95.62 19.05Q95.92 18.51 95.92 17.80L95.92 17.80Q95.92 17.09 95.62 16.54Q95.32 16 94.81 15.70Q94.29 15.40 93.65 15.40L93.65 15.40Q93.02 15.40 92.50 15.70Q91.99 16 91.69 16.54Q91.39 17.09 91.39 17.80ZM105.25 22L103.05 22L103.05 13.60L105.01 13.60L107.96 18.45L110.85 13.60L112.80 13.60L112.82 22L110.64 22L110.62 17.55L108.45 21.17L107.40 21.17L105.25 17.67L105.25 22ZM120.36 22L117.98 22L117.98 13.60L121.83 13.60Q122.96 13.60 123.80 13.98Q124.64 14.35 125.10 15.06Q125.56 15.76 125.56 16.71L125.56 16.71Q125.56 17.66 125.10 18.35Q124.64 19.05 123.80 19.42Q122.96 19.80 121.83 19.80L121.83 19.80L120.36 19.80L120.36 22ZM120.36 15.47L120.36 17.93L121.68 17.93Q122.41 17.93 122.78 17.61Q123.16 17.29 123.16 16.71L123.16 16.71Q123.16 16.12 122.78 15.80Q122.41 15.47 121.68 15.47L121.68 15.47L120.36 15.47ZM130.24 18.26L130.24 18.26L130.24 13.60L132.62 13.60L132.62 18.19Q132.62 20.20 134.21 20.20L134.21 20.20Q135.79 20.20 135.79 18.19L135.79 18.19L135.79 13.60L138.14 13.60L138.14 18.26Q138.14 20.13 137.10 21.15Q136.06 22.17 134.19 22.17L134.19 22.17Q132.31 22.17 131.28 21.15Q130.24 20.13 130.24 18.26ZM145.02 15.48L142.43 15.48L142.43 13.60L149.96 13.60L149.96 15.48L147.39 15.48L147.39 22L145.02 22L145.02 15.48ZM161.07 22L154.33 22L154.33 13.60L160.92 13.60L160.92 15.44L156.68 15.44L156.68 16.85L160.42 16.85L160.42 18.63L156.68 18.63L156.68 20.17L161.07 20.17L161.07 22ZM168.26 22L165.88 22L165.88 13.60L169.72 13.60Q170.86 13.60 171.70 13.98Q172.54 14.35 173.00 15.06Q173.45 15.76 173.45 16.71L173.45 16.71Q173.45 17.62 173.03 18.30Q172.60 18.98 171.81 19.36L171.81 19.36L173.62 22L171.07 22L169.55 19.77L168.26 19.77L168.26 22ZM168.26 15.47L168.26 17.93L169.57 17.93Q170.31 17.93 170.68 17.61Q171.05 17.29 171.05 16.71L171.05 16.71Q171.05 16.12 170.68 15.79Q170.31 15.47 169.57 15.47L169.57 15.47L168.26 15.47ZM187.80 22L184.20 13.60L186.78 13.60L189.06 19.07L191.38 13.60L193.73 13.60L190.13 22L187.80 22ZM200.27 22L197.89 22L197.89 13.60L200.27 13.60L200.27 22ZM204.85 21.24L204.85 21.24L205.63 19.49Q206.20 19.86 206.94 20.09Q207.68 20.32 208.40 20.32L208.40 20.32Q209.77 20.32 209.78 19.64L209.78 19.64Q209.78 19.28 209.39 19.11Q209.00 18.93 208.13 18.74L208.13 18.74Q207.18 18.53 206.54 18.30Q205.91 18.06 205.45 17.55Q205.00 17.03 205.00 16.16L205.00 16.16Q205.00 15.39 205.42 14.77Q205.84 14.15 206.67 13.79Q207.51 13.43 208.71 13.43L208.71 13.43Q209.54 13.43 210.35 13.62Q211.15 13.80 211.77 14.17L211.77 14.17L211.03 15.93Q209.83 15.28 208.70 15.28L208.70 15.28Q207.99 15.28 207.67 15.49Q207.35 15.70 207.35 16.04L207.35 16.04Q207.35 16.37 207.73 16.54Q208.12 16.71 208.97 16.89L208.97 16.89Q209.93 17.10 210.56 17.33Q211.19 17.56 211.65 18.07Q212.11 18.58 212.11 19.46L212.11 19.46Q212.11 20.21 211.69 20.83Q211.28 21.44 210.43 21.80Q209.59 22.17 208.39 22.17L208.39 22.17Q207.37 22.17 206.41 21.92Q205.45 21.67 204.85 21.24ZM219.07 22L216.69 22L216.69 13.60L219.07 13.60L219.07 22ZM223.81 17.80L223.81 17.80Q223.81 16.55 224.42 15.55Q225.02 14.56 226.08 14.00Q227.15 13.43 228.48 13.43L228.48 13.43Q229.81 13.43 230.87 14.00Q231.94 14.56 232.54 15.55Q233.15 16.55 233.15 17.80L233.15 17.80Q233.15 19.05 232.54 20.04Q231.94 21.04 230.87 21.60Q229.81 22.17 228.48 22.17L228.48 22.17Q227.15 22.17 226.08 21.60Q225.02 21.04 224.42 20.04Q223.81 19.05 223.81 17.80ZM226.21 17.80L226.21 17.80Q226.21 18.51 226.51 19.05Q226.81 19.60 227.33 19.90Q227.85 20.20 228.48 20.20L228.48 20.20Q229.12 20.20 229.63 19.90Q230.15 19.60 230.45 19.05Q230.75 18.51 230.75 17.80L230.75 17.80Q230.75 17.09 230.45 16.54Q230.15 16 229.63 15.70Q229.12 15.40 228.48 15.40L228.48 15.40Q227.84 15.40 227.33 15.70Q226.81 16 226.51 16.54Q226.21 17.09 226.21 17.80ZM240.21 22L237.88 22L237.88 13.60L239.83 13.60L243.54 18.07L243.54 13.60L245.87 13.60L245.87 22L243.92 22L240.21 17.52L240.21 22Z" fill="#FFFFFF" x="75.89"/></svg>