<svg xmlns="http://www.w3.org/2000/svg" width="332.18" height="35" viewBox="0 0 332.18 35"><rect class="svg__rect" x="0" y="0" width="64.89" height="35" fill="#31C4F3"/><rect class="svg__rect" x="62.89" y="0" width="269.29" height="35" fill="#C13B3A"/><path class="svg__text" d="M14.08 19.16L14.08 19.16L14.08 13.47L15.56 13.47L15.56 19.18Q15.56 20.03 15.99 20.48Q16.43 20.93 17.27 20.93L17.27 20.93Q18.98 20.93 18.98 19.13L18.98 19.13L18.98 13.47L20.46 13.47L20.46 19.17Q20.46 20.53 19.59 21.32Q18.72 22.12 17.27 22.12L17.27 22.12Q15.81 22.12 14.94 21.33Q14.08 20.55 14.08 19.16ZM24.59 19.42L24.59 19.42L26.08 19.42Q26.08 20.15 26.56 20.55Q27.04 20.95 27.93 20.95L27.93 20.95Q28.71 20.95 29.10 20.63Q29.49 20.32 29.49 19.80L29.49 19.80Q29.49 19.24 29.09 18.94Q28.70 18.63 27.66 18.32Q26.63 18.01 26.02 17.63L26.02 17.63Q24.86 16.90 24.86 15.72L24.86 15.72Q24.86 14.69 25.70 14.02Q26.54 13.35 27.88 13.35L27.88 13.35Q28.77 13.35 29.47 13.68Q30.17 14.01 30.56 14.61Q30.96 15.22 30.96 15.96L30.96 15.96L29.49 15.96Q29.49 15.29 29.07 14.91Q28.65 14.54 27.87 14.54L27.87 14.54Q27.14 14.54 26.74 14.85Q26.34 15.16 26.34 15.71L26.34 15.71Q26.34 16.18 26.77 16.50Q27.21 16.81 28.20 17.10Q29.20 17.40 29.80 17.78Q30.41 18.16 30.69 18.65Q30.97 19.13 30.97 19.79L30.97 19.79Q30.97 20.86 30.15 21.49Q29.33 22.12 27.93 22.12L27.93 22.12Q27.01 22.12 26.23 21.77Q25.46 21.43 25.02 20.83Q24.59 20.22 24.59 19.42ZM40.84 22L35.26 22L35.26 13.47L40.80 13.47L40.80 14.66L36.74 14.66L36.74 17.02L40.24 17.02L40.24 18.19L36.74 18.19L36.74 20.82L40.84 20.82L40.84 22ZM44.60 19.42L44.60 19.42L46.08 19.42Q46.08 20.15 46.56 20.55Q47.04 20.95 47.94 20.95L47.94 20.95Q48.71 20.95 49.10 20.63Q49.49 20.32 49.49 19.80L49.49 19.80Q49.49 19.24 49.10 18.94Q48.70 18.63 47.67 18.32Q46.64 18.01 46.03 17.63L46.03 17.63Q44.86 16.90 44.86 15.72L44.86 15.72Q44.86 14.69 45.70 14.02Q46.54 13.35 47.89 13.35L47.89 13.35Q48.78 13.35 49.47 13.68Q50.17 14.01 50.57 14.61Q50.97 15.22 50.97 15.96L50.97 15.96L49.49 15.96Q49.49 15.29 49.07 14.91Q48.65 14.54 47.87 14.54L47.87 14.54Q47.15 14.54 46.75 14.85Q46.34 15.16 46.34 15.71L46.34 15.71Q46.34 16.18 46.78 16.50Q47.21 16.81 48.21 17.10Q49.20 17.40 49.81 17.78Q50.41 18.16 50.69 18.65Q50.97 19.13 50.97 19.79L50.97 19.79Q50.97 20.86 50.16 21.49Q49.34 22.12 47.94 22.12L47.94 22.12Q47.01 22.12 46.24 21.77Q45.46 21.43 45.03 20.83Q44.60 20.22 44.60 19.42Z" fill="#FFFFFF"/><path class="svg__text" d="M78.50 22L76.07 22L79.78 13.60L82.12 13.60L85.84 22L83.37 22L82.71 20.37L79.16 20.37L78.50 22ZM80.93 15.93L79.85 18.61L82.01 18.61L80.93 15.93ZM92.37 22L89.99 22L89.99 13.60L93.84 13.60Q94.98 13.60 95.82 13.98Q96.65 14.35 97.11 15.06Q97.57 15.76 97.57 16.71L97.57 16.71Q97.57 17.62 97.14 18.30Q96.71 18.98 95.92 19.36L95.92 19.36L97.73 22L95.19 22L93.67 19.77L92.37 19.77L92.37 22ZM92.37 15.47L92.37 17.93L93.69 17.93Q94.42 17.93 94.79 17.61Q95.17 17.29 95.17 16.71L95.17 16.71Q95.17 16.12 94.79 15.79Q94.42 15.47 93.69 15.47L93.69 15.47L92.37 15.47ZM104.15 15.48L101.56 15.48L101.56 13.60L109.09 13.60L109.09 15.48L106.52 15.48L106.52 22L104.15 22L104.15 15.48ZM115.84 22L113.46 22L113.46 13.60L115.84 13.60L115.84 22ZM123.39 22L121.01 22L121.01 13.60L127.60 13.60L127.60 15.44L123.39 15.44L123.39 17.28L127.10 17.28L127.10 19.12L123.39 19.12L123.39 22ZM134.58 22L132.20 22L132.20 13.60L134.58 13.60L134.58 22ZM139.32 17.80L139.32 17.80Q139.32 16.54 139.92 15.54Q140.52 14.55 141.57 13.99Q142.62 13.43 143.94 13.43L143.94 13.43Q145.09 13.43 146.02 13.84Q146.94 14.25 147.55 15.02L147.55 15.02L146.04 16.39Q145.23 15.40 144.06 15.40L144.06 15.40Q143.38 15.40 142.84 15.70Q142.31 16 142.01 16.54Q141.72 17.09 141.72 17.80L141.72 17.80Q141.72 18.51 142.01 19.05Q142.31 19.60 142.84 19.90Q143.38 20.20 144.06 20.20L144.06 20.20Q145.23 20.20 146.04 19.22L146.04 19.22L147.55 20.58Q146.95 21.35 146.02 21.76Q145.09 22.17 143.94 22.17L143.94 22.17Q142.62 22.17 141.57 21.61Q140.52 21.05 139.92 20.05Q139.32 19.06 139.32 17.80ZM154.47 22L152.09 22L152.09 13.60L154.47 13.60L154.47 22ZM161.06 22L158.63 22L162.34 13.60L164.69 13.60L168.40 22L165.94 22L165.27 20.37L161.72 20.37L161.06 22ZM163.50 15.93L162.41 18.61L164.58 18.61L163.50 15.93ZM178.94 22L172.56 22L172.56 13.60L174.94 13.60L174.94 20.11L178.94 20.11L178.94 22ZM192.71 22L190.33 22L190.33 13.60L192.71 13.60L192.71 22ZM200.22 22L197.89 22L197.89 13.60L199.84 13.60L203.55 18.07L203.55 13.60L205.88 13.60L205.88 22L203.93 22L200.22 17.52L200.22 22ZM212.83 15.48L210.25 15.48L210.25 13.60L217.77 13.60L217.77 15.48L215.21 15.48L215.21 22L212.83 22L212.83 15.48ZM228.89 22L222.14 22L222.14 13.60L228.74 13.60L228.74 15.44L224.50 15.44L224.50 16.85L228.23 16.85L228.23 18.63L224.50 18.63L224.50 20.17L228.89 20.17L228.89 22ZM240.08 22L233.69 22L233.69 13.60L236.07 13.60L236.07 20.11L240.08 20.11L240.08 22ZM250.88 22L244.50 22L244.50 13.60L246.88 13.60L246.88 20.11L250.88 20.11L250.88 22ZM257.68 22L255.30 22L255.30 13.60L257.68 13.60L257.68 22ZM262.43 17.80L262.43 17.80Q262.43 16.54 263.03 15.54Q263.62 14.55 264.69 13.99Q265.76 13.43 267.10 13.43L267.10 13.43Q268.28 13.43 269.22 13.83Q270.16 14.22 270.78 14.97L270.78 14.97L269.27 16.33Q268.42 15.40 267.24 15.40L267.24 15.40Q267.23 15.40 267.23 15.40L267.23 15.40Q266.15 15.40 265.49 16.06Q264.82 16.71 264.82 17.80L264.82 17.80Q264.82 18.50 265.13 19.04Q265.43 19.59 265.97 19.89Q266.51 20.20 267.20 20.20L267.20 20.20Q267.89 20.20 268.49 19.93L268.49 19.93L268.49 17.62L270.58 17.62L270.58 21.10Q269.86 21.61 268.93 21.89Q267.99 22.17 267.06 22.17L267.06 22.17Q265.74 22.17 264.68 21.61Q263.62 21.05 263.03 20.05Q262.43 19.06 262.43 17.80ZM282.32 22L275.58 22L275.58 13.60L282.17 13.60L282.17 15.44L277.93 15.44L277.93 16.85L281.66 16.85L281.66 18.63L277.93 18.63L277.93 20.17L282.32 20.17L282.32 22ZM289.46 22L287.12 22L287.12 13.60L289.08 13.60L292.79 18.07L292.79 13.60L295.12 13.60L295.12 22L293.17 22L289.46 17.52L289.46 22ZM299.85 17.80L299.85 17.80Q299.85 16.54 300.45 15.54Q301.05 14.55 302.10 13.99Q303.15 13.43 304.47 13.43L304.47 13.43Q305.62 13.43 306.55 13.84Q307.47 14.25 308.08 15.02L308.08 15.02L306.57 16.39Q305.76 15.40 304.59 15.40L304.59 15.40Q303.91 15.40 303.37 15.70Q302.84 16 302.54 16.54Q302.25 17.09 302.25 17.80L302.25 17.80Q302.25 18.51 302.54 19.05Q302.84 19.60 303.37 19.90Q303.91 20.20 304.59 20.20L304.59 20.20Q305.76 20.20 306.57 19.22L306.57 19.22L308.08 20.58Q307.47 21.35 306.55 21.76Q305.62 22.17 304.47 22.17L304.47 22.17Q303.15 22.17 302.10 21.61Q301.05 21.05 300.45 20.05Q299.85 19.06 299.85 17.80ZM319.36 22L312.62 22L312.62 13.60L319.21 13.60L319.21 15.44L314.97 15.44L314.97 16.85L318.71 16.85L318.71 18.63L314.97 18.63L314.97 20.17L319.36 20.17L319.36 22Z" fill="#FFFFFF" x="75.89"/></svg>