<svg xmlns="http://www.w3.org/2000/svg" width="321.52" height="35" viewBox="0 0 321.52 35"><rect class="svg__rect" x="0" y="0" width="64.89" height="35" fill="#0AD8E9"/><rect class="svg__rect" x="62.89" y="0" width="258.63" height="35" fill="#0AA334"/><path class="svg__text" d="M14.08 19.16L14.08 19.16L14.08 13.47L15.56 13.47L15.56 19.18Q15.56 20.03 15.99 20.48Q16.43 20.93 17.27 20.93L17.27 20.93Q18.98 20.93 18.98 19.13L18.98 19.13L18.98 13.47L20.46 13.47L20.46 19.17Q20.46 20.53 19.59 21.32Q18.72 22.12 17.27 22.12L17.27 22.12Q15.81 22.12 14.94 21.33Q14.08 20.55 14.08 19.16ZM24.59 19.42L24.59 19.42L26.08 19.42Q26.08 20.15 26.56 20.55Q27.04 20.95 27.93 20.95L27.93 20.95Q28.71 20.95 29.10 20.63Q29.49 20.32 29.49 19.80L29.49 19.80Q29.49 19.24 29.09 18.94Q28.70 18.63 27.66 18.32Q26.63 18.01 26.02 17.63L26.02 17.63Q24.86 16.90 24.86 15.72L24.86 15.72Q24.86 14.69 25.70 14.02Q26.54 13.35 27.88 13.35L27.88 13.35Q28.77 13.35 29.47 13.68Q30.17 14.01 30.56 14.61Q30.96 15.22 30.96 15.96L30.96 15.96L29.49 15.96Q29.49 15.29 29.07 14.91Q28.65 14.54 27.87 14.54L27.87 14.54Q27.14 14.54 26.74 14.85Q26.34 15.16 26.34 15.71L26.34 15.71Q26.34 16.18 26.77 16.50Q27.21 16.81 28.20 17.10Q29.20 17.40 29.80 17.78Q30.41 18.16 30.69 18.65Q30.97 19.13 30.97 19.79L30.97 19.79Q30.97 20.86 30.15 21.49Q29.33 22.12 27.93 22.12L27.93 22.12Q27.01 22.12 26.23 21.77Q25.46 21.43 25.02 20.83Q24.59 20.22 24.59 19.42ZM40.84 22L35.26 22L35.26 13.47L40.80 13.47L40.80 14.66L36.74 14.66L36.74 17.02L40.24 17.02L40.24 18.19L36.74 18.19L36.74 20.82L40.84 20.82L40.84 22ZM44.60 19.42L44.60 19.42L46.08 19.42Q46.08 20.15 46.56 20.55Q47.04 20.95 47.94 20.95L47.94 20.95Q48.71 20.95 49.10 20.63Q49.49 20.32 49.49 19.80L49.49 19.80Q49.49 19.24 49.10 18.94Q48.70 18.63 47.67 18.32Q46.64 18.01 46.03 17.63L46.03 17.63Q44.86 16.90 44.86 15.72L44.86 15.72Q44.86 14.69 45.70 14.02Q46.54 13.35 47.89 13.35L47.89 13.35Q48.78 13.35 49.47 13.68Q50.17 14.01 50.57 14.61Q50.97 15.22 50.97 15.96L50.97 15.96L49.49 15.96Q49.49 15.29 49.07 14.91Q48.65 14.54 47.87 14.54L47.87 14.54Q47.15 14.54 46.75 14.85Q46.34 15.16 46.34 15.71L46.34 15.71Q46.34 16.18 46.78 16.50Q47.21 16.81 48.21 17.10Q49.20 17.40 49.81 17.78Q50.41 18.16 50.69 18.65Q50.97 19.13 50.97 19.79L50.97 19.79Q50.97 20.86 50.16 21.49Q49.34 22.12 47.94 22.12L47.94 22.12Q47.01 22.12 46.24 21.77Q45.46 21.43 45.03 20.83Q44.60 20.22 44.60 19.42Z" fill="#FFFFFF"/><path class="svg__text" d="M79.46 22L77.08 22L77.08 13.60L79.46 13.60L79.46 16.76L82.70 16.76L82.70 13.60L85.07 13.60L85.07 22L82.70 22L82.70 18.72L79.46 18.72L79.46 22ZM91.65 22L89.22 22L92.93 13.60L95.28 13.60L98.99 22L96.53 22L95.86 20.37L92.31 20.37L91.65 22ZM94.09 15.93L93.00 18.61L95.17 18.61L94.09 15.93ZM105.48 22L103.15 22L103.15 13.60L105.10 13.60L108.81 18.07L108.81 13.60L111.14 13.60L111.14 22L109.19 22L105.48 17.52L105.48 22ZM120.27 22L116.30 22L116.30 13.60L120.27 13.60Q121.66 13.60 122.72 14.12Q123.79 14.63 124.38 15.58Q124.97 16.53 124.97 17.80L124.97 17.80Q124.97 19.07 124.38 20.02Q123.79 20.97 122.72 21.48Q121.66 22 120.27 22L120.27 22ZM118.68 15.50L118.68 20.10L120.18 20.10Q121.26 20.10 121.91 19.49Q122.56 18.88 122.56 17.80L122.56 17.80Q122.56 16.72 121.91 16.11Q121.26 15.50 120.18 15.50L120.18 15.50L118.68 15.50ZM136.24 17.80L136.24 17.80Q136.24 16.54 136.84 15.54Q137.44 14.55 138.50 13.99Q139.57 13.43 140.92 13.43L140.92 13.43Q142.09 13.43 143.03 13.83Q143.97 14.22 144.59 14.97L144.59 14.97L143.08 16.33Q142.23 15.40 141.06 15.40L141.06 15.40Q141.04 15.40 141.04 15.40L141.04 15.40Q139.96 15.40 139.30 16.06Q138.64 16.71 138.64 17.80L138.64 17.80Q138.64 18.50 138.94 19.04Q139.24 19.59 139.78 19.89Q140.32 20.20 141.02 20.20L141.02 20.20Q141.70 20.20 142.30 19.93L142.30 19.93L142.30 17.62L144.40 17.62L144.40 21.10Q143.68 21.61 142.74 21.89Q141.81 22.17 140.87 22.17L140.87 22.17Q139.55 22.17 138.49 21.61Q137.44 21.05 136.84 20.05Q136.24 19.06 136.24 17.80ZM156.13 22L149.39 22L149.39 13.60L155.98 13.60L155.98 15.44L151.74 15.44L151.74 16.85L155.48 16.85L155.48 18.63L151.74 18.63L151.74 20.17L156.13 20.17L156.13 22ZM160.35 21.24L160.35 21.24L161.13 19.49Q161.69 19.86 162.44 20.09Q163.18 20.32 163.90 20.32L163.90 20.32Q165.27 20.32 165.27 19.64L165.27 19.64Q165.27 19.28 164.88 19.11Q164.49 18.93 163.63 18.74L163.63 18.74Q162.68 18.53 162.04 18.30Q161.41 18.06 160.95 17.55Q160.50 17.03 160.50 16.16L160.50 16.16Q160.50 15.39 160.92 14.77Q161.34 14.15 162.17 13.79Q163.01 13.43 164.21 13.43L164.21 13.43Q165.04 13.43 165.84 13.62Q166.65 13.80 167.27 14.17L167.27 14.17L166.53 15.93Q165.33 15.28 164.20 15.28L164.20 15.28Q163.49 15.28 163.17 15.49Q162.85 15.70 162.85 16.04L162.85 16.04Q162.85 16.37 163.23 16.54Q163.61 16.71 164.46 16.89L164.46 16.89Q165.43 17.10 166.06 17.33Q166.69 17.56 167.15 18.07Q167.61 18.58 167.61 19.46L167.61 19.46Q167.61 20.21 167.19 20.83Q166.77 21.44 165.93 21.80Q165.09 22.17 163.89 22.17L163.89 22.17Q162.87 22.17 161.91 21.92Q160.95 21.67 160.35 21.24ZM173.98 15.48L171.40 15.48L171.40 13.60L178.92 13.60L178.92 15.48L176.35 15.48L176.35 22L173.98 22L173.98 15.48ZM183.22 18.26L183.22 18.26L183.22 13.60L185.60 13.60L185.60 18.19Q185.60 20.20 187.19 20.20L187.19 20.20Q188.78 20.20 188.78 18.19L188.78 18.19L188.78 13.60L191.12 13.60L191.12 18.26Q191.12 20.13 190.08 21.15Q189.04 22.17 187.17 22.17L187.17 22.17Q185.29 22.17 184.26 21.15Q183.22 20.13 183.22 18.26ZM198.58 22L196.20 22L196.20 13.60L200.05 13.60Q201.19 13.60 202.03 13.98Q202.87 14.35 203.32 15.06Q203.78 15.76 203.78 16.71L203.78 16.71Q203.78 17.62 203.35 18.30Q202.93 18.98 202.13 19.36L202.13 19.36L203.95 22L201.40 22L199.88 19.77L198.58 19.77L198.58 22ZM198.58 15.47L198.58 17.93L199.90 17.93Q200.63 17.93 201.01 17.61Q201.38 17.29 201.38 16.71L201.38 16.71Q201.38 16.12 201.01 15.79Q200.63 15.47 199.90 15.47L199.90 15.47L198.58 15.47ZM215.31 22L208.57 22L208.57 13.60L215.16 13.60L215.16 15.44L210.92 15.44L210.92 16.85L214.66 16.85L214.66 18.63L210.92 18.63L210.92 20.17L215.31 20.17L215.31 22ZM226.66 17.80L226.66 17.80Q226.66 16.54 227.26 15.54Q227.86 14.55 228.91 13.99Q229.96 13.43 231.28 13.43L231.28 13.43Q232.43 13.43 233.36 13.84Q234.28 14.25 234.89 15.02L234.89 15.02L233.38 16.39Q232.57 15.40 231.40 15.40L231.40 15.40Q230.72 15.40 230.18 15.70Q229.65 16 229.35 16.54Q229.06 17.09 229.06 17.80L229.06 17.80Q229.06 18.51 229.35 19.05Q229.65 19.60 230.18 19.90Q230.72 20.20 231.40 20.20L231.40 20.20Q232.57 20.20 233.38 19.22L233.38 19.22L234.89 20.58Q234.28 21.35 233.36 21.76Q232.43 22.17 231.28 22.17L231.28 22.17Q229.96 22.17 228.91 21.61Q227.86 21.05 227.26 20.05Q226.66 19.06 226.66 17.80ZM239.00 17.80L239.00 17.80Q239.00 16.55 239.61 15.55Q240.21 14.56 241.27 14.00Q242.34 13.43 243.67 13.43L243.67 13.43Q245.00 13.43 246.06 14.00Q247.12 14.56 247.73 15.55Q248.34 16.55 248.34 17.80L248.34 17.80Q248.34 19.05 247.73 20.04Q247.12 21.04 246.06 21.60Q245.00 22.17 243.67 22.17L243.67 22.17Q242.34 22.17 241.27 21.60Q240.21 21.04 239.61 20.04Q239.00 19.05 239.00 17.80ZM241.40 17.80L241.40 17.80Q241.40 18.51 241.70 19.05Q242.00 19.60 242.52 19.90Q243.03 20.20 243.67 20.20L243.67 20.20Q244.30 20.20 244.82 19.90Q245.34 19.60 245.63 19.05Q245.93 18.51 245.93 17.80L245.93 17.80Q245.93 17.09 245.63 16.54Q245.34 16 244.82 15.70Q244.30 15.40 243.67 15.40L243.67 15.40Q243.03 15.40 242.51 15.70Q242.00 16 241.70 16.54Q241.40 17.09 241.40 17.80ZM255.40 22L253.06 22L253.06 13.60L255.02 13.60L258.73 18.07L258.73 13.60L261.06 13.60L261.06 22L259.11 22L255.40 17.52L255.40 22ZM268.01 15.48L265.43 15.48L265.43 13.60L272.95 13.60L272.95 15.48L270.38 15.48L270.38 22L268.01 22L268.01 15.48ZM279.70 22L277.32 22L277.32 13.60L281.17 13.60Q282.31 13.60 283.15 13.98Q283.98 14.35 284.44 15.06Q284.90 15.76 284.90 16.71L284.90 16.71Q284.90 17.62 284.47 18.30Q284.04 18.98 283.25 19.36L283.25 19.36L285.06 22L282.52 22L281.00 19.77L279.70 19.77L279.70 22ZM279.70 15.47L279.70 17.93L281.02 17.93Q281.75 17.93 282.12 17.61Q282.50 17.29 282.50 16.71L282.50 16.71Q282.50 16.12 282.12 15.79Q281.75 15.47 281.02 15.47L281.02 15.47L279.70 15.47ZM289.26 17.80L289.26 17.80Q289.26 16.55 289.86 15.55Q290.46 14.56 291.53 14.00Q292.59 13.43 293.92 13.43L293.92 13.43Q295.25 13.43 296.32 14.00Q297.38 14.56 297.99 15.55Q298.59 16.55 298.59 17.80L298.59 17.80Q298.59 19.05 297.99 20.04Q297.38 21.04 296.32 21.60Q295.26 22.17 293.92 22.17L293.92 22.17Q292.59 22.17 291.53 21.60Q290.46 21.04 289.86 20.04Q289.26 19.05 289.26 17.80ZM291.65 17.80L291.65 17.80Q291.65 18.51 291.96 19.05Q292.26 19.60 292.77 19.90Q293.29 20.20 293.92 20.20L293.92 20.20Q294.56 20.20 295.08 19.90Q295.59 19.60 295.89 19.05Q296.19 18.51 296.19 17.80L296.19 17.80Q296.19 17.09 295.89 16.54Q295.59 16 295.08 15.70Q294.56 15.40 293.92 15.40L293.92 15.40Q293.28 15.40 292.77 15.70Q292.26 16 291.96 16.54Q291.65 17.09 291.65 17.80ZM309.71 22L303.32 22L303.32 13.60L305.70 13.60L305.70 20.11L309.71 20.11L309.71 22Z" fill="#FFFFFF" x="75.89"/></svg>