<svg xmlns="http://www.w3.org/2000/svg" width="188.18" height="35" viewBox="0 0 188.18 35"><rect class="svg__rect" x="0" y="0" width="64.89" height="35" fill="#DF6377"/><rect class="svg__rect" x="62.89" y="0" width="125.29" height="35" fill="#E163E6"/><path class="svg__text" d="M14.08 19.16L14.08 19.16L14.08 13.47L15.56 13.47L15.56 19.18Q15.56 20.03 15.99 20.48Q16.43 20.93 17.27 20.93L17.27 20.93Q18.98 20.93 18.98 19.13L18.98 19.13L18.98 13.47L20.46 13.47L20.46 19.17Q20.46 20.53 19.59 21.32Q18.72 22.12 17.27 22.12L17.27 22.12Q15.81 22.12 14.94 21.33Q14.08 20.55 14.08 19.16ZM24.59 19.42L24.59 19.42L26.08 19.42Q26.08 20.15 26.56 20.55Q27.04 20.95 27.93 20.95L27.93 20.95Q28.71 20.95 29.10 20.63Q29.49 20.32 29.49 19.80L29.49 19.80Q29.49 19.24 29.09 18.94Q28.70 18.63 27.66 18.32Q26.63 18.01 26.02 17.63L26.02 17.63Q24.86 16.90 24.86 15.72L24.86 15.72Q24.86 14.69 25.70 14.02Q26.54 13.35 27.88 13.35L27.88 13.35Q28.77 13.35 29.47 13.68Q30.17 14.01 30.56 14.61Q30.96 15.22 30.96 15.96L30.96 15.96L29.49 15.96Q29.49 15.29 29.07 14.91Q28.65 14.54 27.87 14.54L27.87 14.54Q27.14 14.54 26.74 14.85Q26.34 15.16 26.34 15.71L26.34 15.71Q26.34 16.18 26.77 16.50Q27.21 16.81 28.20 17.10Q29.20 17.40 29.80 17.78Q30.41 18.16 30.69 18.65Q30.97 19.13 30.97 19.79L30.97 19.79Q30.97 20.86 30.15 21.49Q29.33 22.12 27.93 22.12L27.93 22.12Q27.01 22.12 26.23 21.77Q25.46 21.43 25.02 20.83Q24.59 20.22 24.59 19.42ZM40.84 22L35.26 22L35.26 13.47L40.80 13.47L40.80 14.66L36.74 14.66L36.74 17.02L40.24 17.02L40.24 18.19L36.74 18.19L36.74 20.82L40.84 20.82L40.84 22ZM44.60 19.42L44.60 19.42L46.08 19.42Q46.08 20.15 46.56 20.55Q47.04 20.95 47.94 20.95L47.94 20.95Q48.71 20.95 49.10 20.63Q49.49 20.32 49.49 19.80L49.49 19.80Q49.49 19.24 49.10 18.94Q48.70 18.63 47.67 18.32Q46.64 18.01 46.03 17.63L46.03 17.63Q44.86 16.90 44.86 15.72L44.86 15.72Q44.86 14.69 45.70 14.02Q46.54 13.35 47.89 13.35L47.89 13.35Q48.78 13.35 49.47 13.68Q50.17 14.01 50.57 14.61Q50.97 15.22 50.97 15.96L50.97 15.96L49.49 15.96Q49.49 15.29 49.07 14.91Q48.65 14.54 47.87 14.54L47.87 14.54Q47.15 14.54 46.75 14.85Q46.34 15.16 46.34 15.71L46.34 15.71Q46.34 16.18 46.78 16.50Q47.21 16.81 48.21 17.10Q49.20 17.40 49.81 17.78Q50.41 18.16 50.69 18.65Q50.97 19.13 50.97 19.79L50.97 19.79Q50.97 20.86 50.16 21.49Q49.34 22.12 47.94 22.12L47.94 22.12Q47.01 22.12 46.24 21.77Q45.46 21.43 45.03 20.83Q44.60 20.22 44.60 19.42Z" fill="#FFFFFF"/><path class="svg__text" d="M79.28 22L77.08 22L77.08 13.60L79.03 13.60L81.99 18.45L84.87 13.60L86.82 13.60L86.85 22L84.67 22L84.64 17.55L82.48 21.17L81.43 21.17L79.28 17.67L79.28 22ZM98.75 22L92.01 22L92.01 13.60L98.60 13.60L98.60 15.44L94.36 15.44L94.36 16.85L98.10 16.85L98.10 18.63L94.36 18.63L94.36 20.17L98.75 20.17L98.75 22ZM107.53 22L103.56 22L103.56 13.60L107.53 13.60Q108.91 13.60 109.98 14.12Q111.04 14.63 111.63 15.58Q112.22 16.53 112.22 17.80L112.22 17.80Q112.22 19.07 111.63 20.02Q111.04 20.97 109.98 21.48Q108.91 22 107.53 22L107.53 22ZM105.94 15.50L105.94 20.10L107.44 20.10Q108.51 20.10 109.17 19.49Q109.82 18.88 109.82 17.80L109.82 17.80Q109.82 16.72 109.17 16.11Q108.51 15.50 107.44 15.50L107.44 15.50L105.94 15.50ZM119.33 22L116.95 22L116.95 13.60L119.33 13.60L119.33 22ZM125.92 22L123.50 22L127.20 13.60L129.55 13.60L133.26 22L130.80 22L130.13 20.37L126.58 20.37L125.92 22ZM128.36 15.93L127.28 18.61L129.44 18.61L128.36 15.93ZM139.80 22L137.42 22L137.42 13.60L141.26 13.60Q142.40 13.60 143.24 13.98Q144.08 14.35 144.54 15.06Q144.99 15.76 144.99 16.71L144.99 16.71Q144.99 17.66 144.54 18.35Q144.08 19.05 143.24 19.42Q142.40 19.80 141.26 19.80L141.26 19.80L139.80 19.80L139.80 22ZM139.80 15.47L139.80 17.93L141.11 17.93Q141.85 17.93 142.22 17.61Q142.59 17.29 142.59 16.71L142.59 16.71Q142.59 16.12 142.22 15.80Q141.85 15.47 141.11 15.47L141.11 15.47L139.80 15.47ZM152.12 22L149.75 22L149.75 13.60L152.12 13.60L152.12 22ZM159.68 22L157.30 22L157.30 13.60L161.14 13.60Q162.28 13.60 163.12 13.98Q163.96 14.35 164.42 15.06Q164.87 15.76 164.87 16.71L164.87 16.71Q164.87 17.66 164.42 18.35Q163.96 19.05 163.12 19.42Q162.28 19.80 161.14 19.80L161.14 19.80L159.68 19.80L159.68 22ZM159.68 15.47L159.68 17.93L161.00 17.93Q161.73 17.93 162.10 17.61Q162.47 17.29 162.47 16.71L162.47 16.71Q162.47 16.12 162.10 15.80Q161.73 15.47 161.00 15.47L161.00 15.47L159.68 15.47ZM176.37 22L169.63 22L169.63 13.60L176.22 13.60L176.22 15.44L171.98 15.44L171.98 16.85L175.71 16.85L175.71 18.63L171.98 18.63L171.98 20.17L176.37 20.17L176.37 22Z" fill="#FFFFFF" x="75.89"/></svg>