<svg xmlns="http://www.w3.org/2000/svg" width="267.45" height="35" viewBox="0 0 267.45 35"><rect class="svg__rect" x="0" y="0" width="64.89" height="35" fill="#1624A9"/><rect class="svg__rect" x="62.89" y="0" width="204.56" height="35" fill="#E163E6"/><path class="svg__text" d="M14.08 19.16L14.08 19.16L14.08 13.47L15.56 13.47L15.56 19.18Q15.56 20.03 15.99 20.48Q16.43 20.93 17.27 20.93L17.27 20.93Q18.98 20.93 18.98 19.13L18.98 19.13L18.98 13.47L20.46 13.47L20.46 19.17Q20.46 20.53 19.59 21.32Q18.72 22.12 17.27 22.12L17.27 22.12Q15.81 22.12 14.94 21.33Q14.08 20.55 14.08 19.16ZM24.59 19.42L24.59 19.42L26.08 19.42Q26.08 20.15 26.56 20.55Q27.04 20.95 27.93 20.95L27.93 20.95Q28.71 20.95 29.10 20.63Q29.49 20.32 29.49 19.80L29.49 19.80Q29.49 19.24 29.09 18.94Q28.70 18.63 27.66 18.32Q26.63 18.01 26.02 17.63L26.02 17.63Q24.86 16.90 24.86 15.72L24.86 15.72Q24.86 14.69 25.70 14.02Q26.54 13.35 27.88 13.35L27.88 13.35Q28.77 13.35 29.47 13.68Q30.17 14.01 30.56 14.61Q30.96 15.22 30.96 15.96L30.96 15.96L29.49 15.96Q29.49 15.29 29.07 14.91Q28.65 14.54 27.87 14.54L27.87 14.54Q27.14 14.54 26.74 14.85Q26.34 15.16 26.34 15.71L26.34 15.71Q26.34 16.18 26.77 16.50Q27.21 16.81 28.20 17.10Q29.20 17.40 29.80 17.78Q30.41 18.16 30.69 18.65Q30.97 19.13 30.97 19.79L30.97 19.79Q30.97 20.86 30.15 21.49Q29.33 22.12 27.93 22.12L27.93 22.12Q27.01 22.12 26.23 21.77Q25.46 21.43 25.02 20.83Q24.59 20.22 24.59 19.42ZM40.84 22L35.26 22L35.26 13.47L40.80 13.47L40.80 14.66L36.74 14.66L36.74 17.02L40.24 17.02L40.24 18.19L36.74 18.19L36.74 20.82L40.84 20.82L40.84 22ZM44.60 19.42L44.60 19.42L46.08 19.42Q46.08 20.15 46.56 20.55Q47.04 20.95 47.94 20.95L47.94 20.95Q48.71 20.95 49.10 20.63Q49.49 20.32 49.49 19.80L49.49 19.80Q49.49 19.24 49.10 18.94Q48.70 18.63 47.67 18.32Q46.64 18.01 46.03 17.63L46.03 17.63Q44.86 16.90 44.86 15.72L44.86 15.72Q44.86 14.69 45.70 14.02Q46.54 13.35 47.89 13.35L47.89 13.35Q48.78 13.35 49.47 13.68Q50.17 14.01 50.57 14.61Q50.97 15.22 50.97 15.96L50.97 15.96L49.49 15.96Q49.49 15.29 49.07 14.91Q48.65 14.54 47.87 14.54L47.87 14.54Q47.15 14.54 46.75 14.85Q46.34 15.16 46.34 15.71L46.34 15.71Q46.34 16.18 46.78 16.50Q47.21 16.81 48.21 17.10Q49.20 17.40 49.81 17.78Q50.41 18.16 50.69 18.65Q50.97 19.13 50.97 19.79L50.97 19.79Q50.97 20.86 50.16 21.49Q49.34 22.12 47.94 22.12L47.94 22.12Q47.01 22.12 46.24 21.77Q45.46 21.43 45.03 20.83Q44.60 20.22 44.60 19.42Z" fill="#FFFFFF"/><path class="svg__text" d="M79.46 22L77.08 22L77.08 13.60L83.67 13.60L83.67 15.44L79.46 15.44L79.46 17.28L83.17 17.28L83.17 19.12L79.46 19.12L79.46 22ZM89.68 22L87.26 22L90.96 13.60L93.31 13.60L97.02 22L94.56 22L93.89 20.37L90.34 20.37L89.68 22ZM92.12 15.93L91.03 18.61L93.20 18.61L92.12 15.93ZM100.75 17.80L100.75 17.80Q100.75 16.54 101.35 15.54Q101.95 14.55 103.00 13.99Q104.05 13.43 105.37 13.43L105.37 13.43Q106.52 13.43 107.44 13.84Q108.37 14.25 108.98 15.02L108.98 15.02L107.47 16.39Q106.66 15.40 105.49 15.40L105.49 15.40Q104.80 15.40 104.27 15.70Q103.74 16 103.44 16.54Q103.15 17.09 103.15 17.80L103.15 17.80Q103.15 18.51 103.44 19.05Q103.74 19.60 104.27 19.90Q104.80 20.20 105.49 20.20L105.49 20.20Q106.66 20.20 107.47 19.22L107.47 19.22L108.98 20.58Q108.37 21.35 107.45 21.76Q106.52 22.17 105.37 22.17L105.37 22.17Q104.05 22.17 103.00 21.61Q101.95 21.05 101.35 20.05Q100.75 19.06 100.75 17.80ZM120.26 22L113.52 22L113.52 13.60L120.11 13.60L120.11 15.44L115.87 15.44L115.87 16.85L119.61 16.85L119.61 18.63L115.87 18.63L115.87 20.17L120.26 20.17L120.26 22ZM134.42 22L132.04 22L132.04 13.60L135.88 13.60Q137.03 13.60 137.86 13.98Q138.70 14.35 139.16 15.06Q139.61 15.76 139.61 16.71L139.61 16.71Q139.61 17.62 139.19 18.30Q138.76 18.98 137.97 19.36L137.97 19.36L139.78 22L137.24 22L135.71 19.77L134.42 19.77L134.42 22ZM134.42 15.47L134.42 17.93L135.74 17.93Q136.47 17.93 136.84 17.61Q137.21 17.29 137.21 16.71L137.21 16.71Q137.21 16.12 136.84 15.79Q136.47 15.47 135.74 15.47L135.74 15.47L134.42 15.47ZM151.15 22L144.40 22L144.40 13.60L150.99 13.60L150.99 15.44L146.76 15.44L146.76 16.85L150.49 16.85L150.49 18.63L146.76 18.63L146.76 20.17L151.15 20.17L151.15 22ZM155.52 17.80L155.52 17.80Q155.52 16.54 156.12 15.54Q156.72 14.55 157.77 13.99Q158.82 13.43 160.14 13.43L160.14 13.43Q161.29 13.43 162.22 13.84Q163.14 14.25 163.76 15.02L163.76 15.02L162.24 16.39Q161.43 15.40 160.26 15.40L160.26 15.40Q159.58 15.40 159.04 15.70Q158.51 16 158.22 16.54Q157.92 17.09 157.92 17.80L157.92 17.80Q157.92 18.51 158.22 19.05Q158.51 19.60 159.04 19.90Q159.58 20.20 160.26 20.20L160.26 20.20Q161.43 20.20 162.24 19.22L162.24 19.22L163.76 20.58Q163.15 21.35 162.22 21.76Q161.29 22.17 160.14 22.17L160.14 22.17Q158.82 22.17 157.77 21.61Q156.72 21.05 156.12 20.05Q155.52 19.06 155.52 17.80ZM167.86 17.80L167.86 17.80Q167.86 16.55 168.47 15.55Q169.07 14.56 170.13 14.00Q171.20 13.43 172.53 13.43L172.53 13.43Q173.86 13.43 174.92 14.00Q175.98 14.56 176.59 15.55Q177.20 16.55 177.20 17.80L177.20 17.80Q177.20 19.05 176.59 20.04Q175.98 21.04 174.92 21.60Q173.86 22.17 172.53 22.17L172.53 22.17Q171.20 22.17 170.13 21.60Q169.07 21.04 168.47 20.04Q167.86 19.05 167.86 17.80ZM170.26 17.80L170.26 17.80Q170.26 18.51 170.56 19.05Q170.86 19.60 171.38 19.90Q171.89 20.20 172.53 20.20L172.53 20.20Q173.17 20.20 173.68 19.90Q174.20 19.60 174.50 19.05Q174.79 18.51 174.79 17.80L174.79 17.80Q174.79 17.09 174.50 16.54Q174.20 16 173.68 15.70Q173.17 15.40 172.53 15.40L172.53 15.40Q171.89 15.40 171.38 15.70Q170.86 16 170.56 16.54Q170.26 17.09 170.26 17.80ZM181.50 17.80L181.50 17.80Q181.50 16.54 182.10 15.54Q182.69 14.55 183.76 13.99Q184.83 13.43 186.17 13.43L186.17 13.43Q187.35 13.43 188.29 13.83Q189.23 14.22 189.85 14.97L189.85 14.97L188.34 16.33Q187.49 15.40 186.31 15.40L186.31 15.40Q186.30 15.40 186.30 15.40L186.30 15.40Q185.22 15.40 184.56 16.06Q183.89 16.71 183.89 17.80L183.89 17.80Q183.89 18.50 184.20 19.04Q184.50 19.59 185.04 19.89Q185.58 20.20 186.27 20.20L186.27 20.20Q186.96 20.20 187.56 19.93L187.56 19.93L187.56 17.62L189.65 17.62L189.65 21.10Q188.93 21.61 188.00 21.89Q187.06 22.17 186.13 22.17L186.13 22.17Q184.81 22.17 183.75 21.61Q182.69 21.05 182.10 20.05Q181.50 19.06 181.50 17.80ZM196.98 22L194.65 22L194.65 13.60L196.60 13.60L200.31 18.07L200.31 13.60L202.64 13.60L202.64 22L200.69 22L196.98 17.52L196.98 22ZM210.18 22L207.80 22L207.80 13.60L210.18 13.60L210.18 22ZM217.15 15.48L214.56 15.48L214.56 13.60L222.09 13.60L222.09 15.48L219.52 15.48L219.52 22L217.15 22L217.15 15.48ZM228.84 22L226.46 22L226.46 13.60L228.84 13.60L228.84 22ZM233.58 17.80L233.58 17.80Q233.58 16.55 234.19 15.55Q234.79 14.56 235.85 14.00Q236.92 13.43 238.25 13.43L238.25 13.43Q239.58 13.43 240.64 14.00Q241.70 14.56 242.31 15.55Q242.92 16.55 242.92 17.80L242.92 17.80Q242.92 19.05 242.31 20.04Q241.70 21.04 240.64 21.60Q239.58 22.17 238.25 22.17L238.25 22.17Q236.92 22.17 235.85 21.60Q234.79 21.04 234.19 20.04Q233.58 19.05 233.58 17.80ZM235.98 17.80L235.98 17.80Q235.98 18.51 236.28 19.05Q236.58 19.60 237.10 19.90Q237.61 20.20 238.25 20.20L238.25 20.20Q238.88 20.20 239.40 19.90Q239.92 19.60 240.21 19.05Q240.51 18.51 240.51 17.80L240.51 17.80Q240.51 17.09 240.21 16.54Q239.92 16 239.40 15.70Q238.88 15.40 238.25 15.40L238.25 15.40Q237.61 15.40 237.09 15.70Q236.58 16 236.28 16.54Q235.98 17.09 235.98 17.80ZM249.98 22L247.64 22L247.64 13.60L249.60 13.60L253.31 18.07L253.31 13.60L255.64 13.60L255.64 22L253.69 22L249.98 17.52L249.98 22Z" fill="#FFFFFF" x="75.89"/></svg>