<svg xmlns="http://www.w3.org/2000/svg" width="164.39" height="35" viewBox="0 0 164.39 35"><rect class="svg__rect" x="0" y="0" width="64.89" height="35" fill="#39C25F"/><rect class="svg__rect" x="62.89" y="0" width="101.49999999999999" height="35" fill="#64AEDC"/><path class="svg__text" d="M14.08 19.16L14.08 19.16L14.08 13.47L15.56 13.47L15.56 19.18Q15.56 20.03 15.99 20.48Q16.43 20.93 17.27 20.93L17.27 20.93Q18.98 20.93 18.98 19.13L18.98 19.13L18.98 13.47L20.46 13.47L20.46 19.17Q20.46 20.53 19.59 21.32Q18.72 22.12 17.27 22.12L17.27 22.12Q15.81 22.12 14.94 21.33Q14.08 20.55 14.08 19.16ZM24.59 19.42L24.59 19.42L26.08 19.42Q26.08 20.15 26.56 20.55Q27.04 20.95 27.93 20.95L27.93 20.95Q28.71 20.95 29.10 20.63Q29.49 20.32 29.49 19.80L29.49 19.80Q29.49 19.24 29.09 18.94Q28.70 18.63 27.66 18.32Q26.63 18.01 26.02 17.63L26.02 17.63Q24.86 16.90 24.86 15.72L24.86 15.72Q24.86 14.69 25.70 14.02Q26.54 13.35 27.88 13.35L27.88 13.35Q28.77 13.35 29.47 13.68Q30.17 14.01 30.56 14.61Q30.96 15.22 30.96 15.96L30.96 15.96L29.49 15.96Q29.49 15.29 29.07 14.91Q28.65 14.54 27.87 14.54L27.87 14.54Q27.14 14.54 26.74 14.85Q26.34 15.16 26.34 15.71L26.34 15.71Q26.34 16.18 26.77 16.50Q27.21 16.81 28.20 17.10Q29.20 17.40 29.80 17.78Q30.41 18.16 30.69 18.65Q30.97 19.13 30.97 19.79L30.97 19.79Q30.97 20.86 30.15 21.49Q29.33 22.12 27.93 22.12L27.93 22.12Q27.01 22.12 26.23 21.77Q25.46 21.43 25.02 20.83Q24.59 20.22 24.59 19.42ZM40.84 22L35.26 22L35.26 13.47L40.80 13.47L40.80 14.66L36.74 14.66L36.74 17.02L40.24 17.02L40.24 18.19L36.74 18.19L36.74 20.82L40.84 20.82L40.84 22ZM44.60 19.42L44.60 19.42L46.08 19.42Q46.08 20.15 46.56 20.55Q47.04 20.95 47.94 20.95L47.94 20.95Q48.71 20.95 49.10 20.63Q49.49 20.32 49.49 19.80L49.49 19.80Q49.49 19.24 49.10 18.94Q48.70 18.63 47.67 18.32Q46.64 18.01 46.03 17.63L46.03 17.63Q44.86 16.90 44.86 15.72L44.86 15.72Q44.86 14.69 45.70 14.02Q46.54 13.35 47.89 13.35L47.89 13.35Q48.78 13.35 49.47 13.68Q50.17 14.01 50.57 14.61Q50.97 15.22 50.97 15.96L50.97 15.96L49.49 15.96Q49.49 15.29 49.07 14.91Q48.65 14.54 47.87 14.54L47.87 14.54Q47.15 14.54 46.75 14.85Q46.34 15.16 46.34 15.71L46.34 15.71Q46.34 16.18 46.78 16.50Q47.21 16.81 48.21 17.10Q49.20 17.40 49.81 17.78Q50.41 18.16 50.69 18.65Q50.97 19.13 50.97 19.79L50.97 19.79Q50.97 20.86 50.16 21.49Q49.34 22.12 47.94 22.12L47.94 22.12Q47.01 22.12 46.24 21.77Q45.46 21.43 45.03 20.83Q44.60 20.22 44.60 19.42Z" fill="#FFFFFF"/><path class="svg__text" d="M78.87 15.48L76.29 15.48L76.29 13.60L83.81 13.60L83.81 15.48L81.24 15.48L81.24 22L78.87 22L78.87 15.48ZM90.54 22L88.18 22L88.18 13.60L90.54 13.60L90.54 17.09L93.79 13.60L96.40 13.60L92.97 17.32L96.58 22L93.82 22L91.42 18.95L90.54 19.90L90.54 22ZM103.07 22L100.69 22L100.69 13.60L103.07 13.60L103.07 22ZM110.58 22L108.24 22L108.24 13.60L110.20 13.60L113.91 18.07L113.91 13.60L116.24 13.60L116.24 22L114.28 22L110.58 17.52L110.58 22ZM123.19 15.48L120.61 15.48L120.61 13.60L128.13 13.60L128.13 15.48L125.56 15.48L125.56 22L123.19 22L123.19 15.48ZM139.25 22L132.50 22L132.50 13.60L139.09 13.60L139.09 15.44L134.86 15.44L134.86 16.85L138.59 16.85L138.59 18.63L134.86 18.63L134.86 20.17L139.25 20.17L139.25 22ZM146.43 22L144.05 22L144.05 13.60L147.89 13.60Q149.04 13.60 149.87 13.98Q150.71 14.35 151.17 15.06Q151.63 15.76 151.63 16.71L151.63 16.71Q151.63 17.62 151.20 18.30Q150.77 18.98 149.98 19.36L149.98 19.36L151.79 22L149.25 22L147.72 19.77L146.43 19.77L146.43 22ZM146.43 15.47L146.43 17.93L147.75 17.93Q148.48 17.93 148.85 17.61Q149.22 17.29 149.22 16.71L149.22 16.71Q149.22 16.12 148.85 15.79Q148.48 15.47 147.75 15.47L147.75 15.47L146.43 15.47Z" fill="#FFFFFF" x="75.89"/></svg>